<svg width="148" height="148" viewBox="0 0 148 148" fill="none" xmlns="http://www.w3.org/2000/svg">
<path d="M107.917 30.8347C113.026 30.8347 117.167 34.9761 117.167 40.0847C117.167 45.1934 113.026 49.3347 107.917 49.3347C102.808 49.3347 98.667 45.1934 98.667 40.0847C98.667 34.9761 102.808 30.8347 107.917 30.8347Z" stroke="#455F2C" stroke-width="4" stroke-linecap="round" stroke-linejoin="round"/>
<path d="M17.1074 68.7206C10.9214 75.6298 10.7883 86.0533 16.4657 93.3861C27.7319 107.937 40.0629 120.268 54.6137 131.534C61.9463 137.211 72.3698 137.078 79.279 130.892C98.0367 114.097 115.215 96.5446 131.793 77.2553C133.432 75.3486 134.457 73.0114 134.687 70.5071C135.705 59.4341 137.795 27.532 129.132 18.8683C120.467 10.2046 88.5654 12.2948 77.4925 13.3123C74.9882 13.5424 72.651 14.5676 70.7437 16.2066C51.4551 32.7848 33.9029 49.9629 17.1074 68.7206Z" stroke="#455F2C" stroke-width="4"/>
<path d="M43.167 86.3345L61.6669 104.834" stroke="#455F2C" stroke-width="4" stroke-linecap="round" stroke-linejoin="round"/>
</svg>
