<svg width="184" height="185" viewBox="0 0 184 185" fill="none" xmlns="http://www.w3.org/2000/svg">
<rect y="0.0391846" width="184" height="183.999" rx="91.9994" fill="#8C9C72"/>
<path d="M117.913 119.703C117.038 119.279 115.998 119.641 115.575 120.509C110.694 130.572 101.657 136.827 92.004 136.827C82.3517 136.827 73.3211 130.579 68.4333 120.516C68.0095 119.648 66.9636 119.286 66.0955 119.71C65.2274 120.133 64.865 121.179 65.2889 122.047C70.7644 133.327 80.9979 140.326 92.0043 140.326C103.01 140.326 113.251 133.319 118.72 122.033C119.144 121.165 118.781 120.119 117.913 119.696L117.913 119.703Z" fill="white"/>
<path d="M75.6957 95.052C75.6957 96.0227 76.4749 96.802 77.4456 96.802C78.4164 96.802 79.1956 96.0227 79.1956 95.052C79.1956 88.8449 74.1439 83.7864 67.93 83.7864C61.723 83.7864 56.6644 88.8381 56.6644 95.052C56.6644 96.0227 57.4437 96.802 58.4144 96.802C59.3851 96.802 60.1644 96.0227 60.1644 95.052C60.1644 90.7727 63.6508 87.2864 67.93 87.2864C72.2093 87.2864 75.6957 90.7727 75.6957 95.052Z" fill="white"/>
<path d="M116.047 83.7856C109.84 83.7856 104.782 88.8374 104.782 95.0513C104.782 96.022 105.561 96.8013 106.532 96.8013C107.502 96.8013 108.282 96.022 108.282 95.0513C108.282 90.772 111.768 87.2856 116.047 87.2856C120.327 87.2856 123.813 90.772 123.813 95.0513C123.813 96.022 124.592 96.8013 125.563 96.8013C126.534 96.8013 127.313 96.022 127.313 95.0513C127.313 88.8442 122.261 83.7856 116.047 83.7856Z" fill="white"/>
<path d="M148.3 82.3226C146.372 74.728 142.968 67.728 138.189 61.4731C143.508 49.1615 142.359 35.8322 134.689 23.9707L133.958 22.8359C133.589 22.2617 132.912 21.9609 132.228 22.0566C115.214 24.6132 106.696 30.916 102.793 35.0654C101.105 33.6845 98.9517 32.8574 96.6068 32.8574H87.3852C85.0406 32.8574 82.8872 33.6914 81.1987 35.0654C77.2202 30.8339 68.7026 24.5995 51.7637 22.0566C51.0733 21.9609 50.4033 22.2617 50.0342 22.8359L49.3028 23.9707C41.6329 35.8309 40.4843 49.1619 45.8028 61.4731C41.038 67.728 37.5312 74.974 35.6309 82.5763C28.002 83.4377 22 90.0002 22 97.8067C22 105.805 28.1523 112.395 36.0684 113.078C42.4394 137.051 63.9039 162.038 92.0001 162.038C120.219 162.038 141.691 136.936 147.993 112.847C155.827 112.171 162 105.574 162 97.5689C162 89.7281 155.971 83.1587 148.307 82.3317L148.3 82.3226ZM131.634 25.6944L131.75 25.8721C140.028 38.669 140.028 53.3524 131.75 66.1501L131.634 66.3278C115.986 63.7644 108.425 57.9744 105.062 54.2693C105.896 52.8269 106.381 51.1658 106.381 49.3815V42.6344C106.381 40.8571 105.896 39.189 105.062 37.7467C108.384 34.0825 115.938 28.2584 131.634 25.6882V25.6944ZM87.385 36.3586H96.6066C100.066 36.3586 102.889 39.175 102.889 42.6407V49.3878C102.889 52.8469 100.072 55.67 96.6066 55.67H87.385C83.9259 55.67 81.1028 52.8535 81.1028 49.3878V42.6407C81.1028 39.1816 83.9193 36.3586 87.385 36.3586ZM52.2345 25.8722L52.3507 25.6945C67.9709 28.2511 75.5312 34.0138 78.9157 37.753C78.0817 39.1886 77.5964 40.8565 77.5964 42.6339V49.3811C77.5964 51.1584 78.0817 52.8265 78.9157 54.2688C75.566 57.9602 68.0055 63.7639 52.3437 66.3273L52.2275 66.1496C43.9492 53.3527 43.9492 38.6694 52.2275 25.8717L52.2345 25.8722ZM146.824 109.407C145.955 109.318 145.108 109.885 144.903 110.733C139.352 133.906 118.919 158.529 91.9932 158.529C65.1833 158.529 44.7503 134.022 39.1381 110.964C38.9467 110.178 38.14 109.631 37.3335 109.631C30.8051 109.631 25.4937 104.319 25.4937 97.791C25.4937 91.4131 30.6891 86.1083 37.067 85.9648C37.8736 85.9443 38.5572 85.3838 38.7349 84.5976C40.314 77.6045 43.3423 70.8848 47.519 65.0134C48.0727 66.0251 48.6538 67.0368 49.3031 68.035L50.0346 69.1697C50.3627 69.6756 50.9164 69.9695 51.5043 69.9695C51.5863 69.9695 51.6752 69.9627 51.7641 69.949C59.0922 68.8484 64.8206 67.0507 69.3113 65.0272V72.738C69.3113 73.7087 70.0906 74.488 71.0613 74.488C72.032 74.488 72.8113 73.7087 72.8113 72.738V63.284C76.7624 61.0897 79.4422 58.8065 81.199 56.9334C82.8875 58.3143 85.0408 59.1414 87.3786 59.1414H90.284V72.7312C90.284 73.7019 91.0633 74.4812 92.034 74.4812C93.0047 74.4812 93.784 73.7019 93.784 72.7312V59.1414H96.6004C98.9451 59.1414 101.098 58.3074 102.787 56.9266C104.551 58.8065 107.224 61.0897 111.175 63.2772V72.7312C111.175 73.7019 111.954 74.4812 112.925 74.4812C113.895 74.4812 114.675 73.7019 114.675 72.7312V65.0203C119.166 67.0437 124.901 68.8416 132.222 69.9422C132.311 69.9559 132.4 69.9627 132.482 69.9627C133.07 69.9627 133.623 69.6688 133.951 69.1629L134.683 68.0281C135.325 67.0301 135.913 66.0253 136.467 65.0066C140.637 70.8512 143.576 77.3387 145.197 84.3528C145.374 85.1321 146.065 85.6927 146.871 85.7063C153.283 85.8226 158.492 91.1273 158.492 97.5325C158.492 104.061 153.181 109.372 146.823 109.379L146.824 109.407Z" fill="white"/>
</svg>
