<svg width="232" height="32" viewBox="0 0 232 32" fill="none" xmlns="http://www.w3.org/2000/svg">
<path fill-rule="evenodd" clip-rule="evenodd" d="M110.081 0.0811204C95.726 0.750493 68.1636 6.9038 42.2372 15.2272C40.1465 15.8984 37.3921 16.7833 36.1164 17.1935C18.9144 22.7258 9.66293 26.2146 3.18721 29.6118C0.659927 30.9377 0.442802 31.0984 0.509679 31.5938C0.607353 32.3167 1.01854 32.205 5.70804 30.1822C10.5607 28.089 14.9101 26.5692 26.8387 22.7984C66.7065 10.1956 85.3277 5.57546 106.215 3.10424C110.308 2.61992 116.846 2.70427 116.846 3.2413C116.846 3.95866 112.745 6.40515 103.251 11.3522C91.5714 17.4383 84.4611 21.4755 83.8314 22.3788C82.7554 23.9224 83.9389 25.0362 86.4996 24.8902C87.963 24.8068 88.2953 24.7437 95.0042 23.2749C114.266 19.0578 126.577 16.9175 143.261 14.8849C168.669 11.7895 184.857 10.6475 215.293 9.80351C226.229 9.50032 226.794 9.45801 228.813 8.79418C229.591 8.5383 230.52 8.28823 230.878 8.23835C231.717 8.1217 231.706 7.97247 230.852 7.86243C230.48 7.81445 229.625 7.58547 228.951 7.35352C227.291 6.7816 226.191 6.75173 216.71 7.02099C184.927 7.92354 168.203 9.07777 143.97 12.0413C131.225 13.5998 125.546 14.4467 116.266 16.1725C109.921 17.3523 93.1752 20.7871 90.8294 21.3895C89.5494 21.7183 95.1054 18.6171 104.864 13.5559C117.209 7.15359 119.666 5.41474 119.678 3.07559C119.69 0.437842 117.447 -0.262217 110.081 0.0811204Z" fill="#8C9C72"/>
</svg>
