<svg width="184" height="185" viewBox="0 0 184 185" fill="none" xmlns="http://www.w3.org/2000/svg">
<rect y="0.0391846" width="184" height="184" rx="92" fill="#8C9C72"/>
<path d="M69 153.373C40.0886 146.716 23 120.231 23 95.9508C23 67.0803 48.8379 38.5502 66.9733 22.0809C76.8231 13.1364 91.8444 13.1364 101.693 22.0809C113.246 32.5718 127.074 47.9566 136.092 65.2059" stroke="white" stroke-width="4" stroke-linecap="round"/>
<path d="M130.333 118.872C118.833 126.539 99.6667 141.872 84.3333 168.706M99.6667 145.706C79.2442 100.784 121.399 86.1779 152.758 84.4936C156.542 84.2904 158.434 84.1884 159.793 85.4994C161.152 86.8096 161.073 88.678 160.916 92.4147C159.615 123.485 145.626 165.691 99.6667 145.706Z" stroke="white" stroke-width="4" stroke-linecap="round" stroke-linejoin="round"/>
</svg>
