<svg width="148" height="148" viewBox="0 0 148 148" fill="none" xmlns="http://www.w3.org/2000/svg">
<path d="M55.5 123.333C32.2452 117.979 18.5 96.676 18.5 77.1462C18.5 53.9242 39.2827 30.9761 53.8698 17.7291C61.7925 10.5346 73.8748 10.5346 81.7965 17.7291C91.0891 26.1674 102.212 38.5422 109.465 52.4166" stroke="#455F2C" stroke-width="4" stroke-linecap="round"/>
<path d="M104.833 95.5834C95.583 101.75 80.1663 114.083 67.833 135.667M80.1663 117.167C63.7396 81.0344 97.647 69.2856 122.87 67.9308C125.914 67.7674 127.436 67.6854 128.528 68.7399C129.622 69.7938 129.558 71.2966 129.432 74.3022C128.386 99.2939 117.134 133.242 80.1663 117.167Z" stroke="#455F2C" stroke-width="4" stroke-linecap="round" stroke-linejoin="round"/>
</svg>
