<svg width="218" height="162" viewBox="0 0 218 162" fill="none" xmlns="http://www.w3.org/2000/svg">
<path d="M184.429 5.14076C192.846 13.5575 197.318 24.4782 197.581 36.3282C197.186 46.0688 194.08 54.0057 187.261 60.9829C188.716 61.2938 188.716 61.2938 190.2 61.6108C208.476 65.6251 208.476 65.6251 213.766 73.8079C217.996 82.6481 217.95 90.1142 214.888 99.2976C211.563 107.374 206.239 111.402 198.376 114.848C197.877 115.079 197.378 115.311 196.864 115.549C192.126 117.574 187.878 117.748 182.772 117.627C182.016 117.622 181.26 117.618 180.481 117.613C177.173 117.573 174.214 117.464 171.016 116.558C170.968 117.953 170.968 117.953 170.919 119.377C170.191 136.855 170.191 136.855 165.993 144.132C164.176 145.628 164.176 145.628 162.146 145.909C159.311 145.554 158.385 144.623 156.374 142.635C153.926 140.037 153.926 140.037 150.496 139.643C150.227 140.304 149.958 140.966 149.681 141.647C143.951 155.593 143.951 155.593 141.091 158.453C139.274 158.132 139.274 158.132 137.671 157.598C137.637 156.859 137.603 156.119 137.568 155.358C136.429 128.399 136.429 128.399 128.266 102.878C127.984 102.031 127.702 101.185 127.411 100.313C123.809 101.811 122.953 103.488 121.373 106.918C120.055 110.115 118.986 113.351 118.006 116.665C117.68 117.762 117.68 117.762 117.348 118.881C114.163 129.998 111.841 141.624 111.4 153.199C111.166 155.033 111.166 155.033 109.456 157.598C103.314 157.375 99.7758 155.288 94.9212 151.613C94.7559 152.139 94.5906 152.664 94.4202 153.206C94.1976 153.897 93.975 154.588 93.7456 155.3C93.4182 156.327 93.4182 156.327 93.0843 157.374C92.3562 159.308 92.3562 159.308 90.6462 161.873C88.5979 161.552 87.5027 161.319 86.0773 159.769C82.1228 153.223 79.7841 146.149 77.8212 138.788C77.2194 139.067 76.6177 139.346 75.9976 139.633C66.7257 143.736 57.1973 146.922 47.0412 144.773C46.3303 144.632 45.6194 144.491 44.887 144.345C37.2176 142.461 31.2609 137.8 26.765 131.35C22.546 123.797 21.0707 116.503 23.1546 108.115C24.7515 103.148 27.6653 99.2946 30.7962 95.1829C31.6426 93.9133 31.6426 93.9133 32.5062 92.6179C31.9882 92.554 31.4702 92.4901 30.9365 92.4242C21.1939 90.8954 13.8958 85.663 7.71119 78.0829C5.76638 75.047 4.09311 71.9496 2.58119 68.6779C2.26267 68.064 1.94415 67.4501 1.61598 66.8176C-1.36614 57.1492 -0.103224 45.0739 4.43481 36.1679C14.8999 19.1649 31.9086 8.82282 50.8887 3.80482C61.9082 1.54683 72.5528 1.87774 82.2365 7.96292C98.0102 19.2942 105.026 35.7711 108.377 54.4636C108.451 54.9221 108.525 55.3806 108.601 55.8529C110.858 55.8529 113.116 55.8529 115.441 55.8529C115.552 55.0131 115.552 55.0131 115.665 54.1563C118.394 36.4275 128.731 21.6702 142.587 10.6983C156.6 0.670717 169.009 -4.54142 184.429 5.14076ZM140.236 17.3779C140.236 17.9422 140.236 18.5065 140.236 19.0879C139.672 19.0879 139.108 19.0879 138.526 19.0879C129.075 29.0396 120.686 41.9959 118.861 55.8529C123.344 58.6704 127.124 60.8715 132.541 60.1279C134.044 59.2875 134.044 59.2875 135.587 58.2042C142.35 53.657 150.136 51.8868 158.191 52.4329C158.191 53.2794 158.191 54.1258 158.191 54.9979C157.044 55.1236 157.044 55.1236 155.873 55.2518C147.84 56.2452 140.698 57.573 134.251 62.6929C135.264 64.9944 136.519 66.8615 138.045 68.8383C140.525 72.2136 141.685 75.7897 142.801 79.7929C143.626 79.6078 143.626 79.6078 144.468 79.4189C154.967 77.2622 164.117 77.8106 174.436 80.6479C174.436 81.7765 174.436 82.9051 174.436 84.0679C173.876 83.8927 173.316 83.7175 172.74 83.5369C161.539 80.2305 153.007 80.3809 141.946 84.0679C140.656 86.6482 140.663 88.0208 141.091 90.9079C147.455 101.259 161.848 110.307 173.581 113.138C176.603 113.475 179.575 113.498 182.612 113.459C183.759 113.473 183.759 113.473 184.928 113.489C192.587 113.455 199.194 111.111 205.216 106.298C210.415 100.829 212.974 95.1067 213.339 87.5948C213.144 80.9047 210.739 75.5251 205.911 70.8689C197.88 64.8331 187.44 65.5433 177.856 65.2579C179.792 62.7263 181.568 60.637 184.162 58.792C188.923 54.8724 191.332 48.7694 193.246 43.0279C194.331 30.8013 191.596 20.6027 183.945 10.7818C179.585 6.08468 175.092 3.97563 168.772 3.43076C158.832 3.57829 147.626 11.2529 140.236 17.3779ZM19.6812 24.2179C18.9494 24.8495 18.2175 25.481 17.4635 26.1317C10.5397 32.5029 4.74888 41.1694 4.11752 50.8098C3.98943 60.4377 5.41385 67.6934 11.1312 75.5179C11.4993 76.0371 11.8674 76.5562 12.2467 77.091C18.3617 84.9853 27.6608 88.5279 37.3156 89.7858C38.2678 89.8739 39.2201 89.9621 40.2012 90.0529C40.4833 91.1815 40.7655 92.3101 41.0562 93.4729C40.4236 93.6802 39.7909 93.8874 39.1391 94.1008C34.3463 96.3004 31.2637 101.001 28.2846 105.229C25.9022 112.517 25.6864 119.877 29.0862 126.818C32.3751 132.808 37.3151 137.038 43.6212 139.643C56.0622 142.642 68.0424 139.469 78.9968 133.444C83.9632 130.338 88.2144 126.67 92.3562 122.543C92.9007 122.018 93.4451 121.494 94.0061 120.953C98.7757 115.993 101.516 109.94 104.326 103.733C104.682 103.013 105.038 102.294 105.405 101.552C106.222 98.8407 105.796 97.0762 105.181 94.3279C105.04 93.4517 104.899 92.5755 104.754 91.6728C104.613 90.8032 104.472 89.9336 104.326 89.0376C104.185 88.1614 104.044 87.2852 103.899 86.3825C103.513 83.997 103.513 83.997 102.616 81.5029C90.797 84.1553 79.0742 89.2781 72.3171 99.8854C71.8763 100.591 71.4354 101.296 70.9812 102.023C69.7115 102.446 69.7115 102.446 68.4162 102.878C70.2926 95.6402 74.824 90.3969 81.1573 86.4831C87.2249 83.0986 93.5314 80.4571 100.051 78.0829C100.051 77.2365 100.051 76.39 100.051 75.5179C98.0284 73.5009 95.5699 71.9892 93.2112 70.3879C92.5091 69.9085 91.8071 69.4291 91.0837 68.9351C81.7945 62.8111 72.884 58.1667 61.9365 56.1345C60.3748 55.8311 58.8342 55.4231 57.3012 54.9979C57.019 54.1515 56.7369 53.305 56.4462 52.4329C72.3158 53.5089 86.0587 60.9819 98.5182 70.3846C100.808 72.2057 100.808 72.2057 103.471 72.9529C103.824 70.1073 104.087 67.2602 104.326 64.4029C104.444 63.3184 104.444 63.3184 104.563 62.212C104.93 56.056 103.61 50.5316 102.028 44.6311C101.82 43.8461 101.612 43.0611 101.397 42.2523C98.0847 30.5761 92.1682 19.3237 81.7489 12.6187C60.4969 0.872476 36.8675 8.90092 19.6812 24.2179ZM108.655 62.0517C106.615 67.3311 106.704 72.2553 106.677 77.8692C106.66 78.7752 106.642 79.6811 106.624 80.6145C106.595 86.416 106.714 91.9544 110.661 96.6015C112.982 98.5578 115.021 98.5067 118.006 98.6029C125.988 97.1026 133.061 92.4044 137.671 85.7779C139.351 81.7734 138.83 77.3927 137.618 73.327C133.177 65.448 125.394 62.8756 117.151 60.1279C112.348 59.4082 112.348 59.4082 108.655 62.0517ZM133.77 94.7554C133.222 95.1522 132.675 95.549 132.11 95.9578C131.688 96.2664 131.266 96.575 130.831 96.8929C131.182 99.698 131.981 101.848 133.299 104.311C135.067 107.797 136.294 111.235 137.297 115.008C137.476 115.677 137.655 116.345 137.839 117.033C140.408 127.474 141.059 138.361 141.946 149.048C143.156 146.658 144.234 144.255 145.259 141.78C146.599 138.779 147.731 136.44 150.496 134.513C152.58 133.979 152.58 133.979 154.771 134.513C156.234 136.19 157.66 137.901 159.046 139.643C160.898 140.45 160.898 140.45 162.466 140.498C166.777 132.702 167.105 123.615 166.741 114.848C166.006 114.463 165.271 114.079 164.514 113.682C154.159 108.107 145.884 101.018 137.671 92.6179C136.121 92.6179 134.983 93.8732 133.77 94.7554ZM108.601 100.313C108.16 101.653 107.719 102.993 107.265 104.374C103.099 115.723 96.4892 124.938 86.7453 132.108C83.6011 134.491 83.6011 134.491 82.2031 138.093C84.14 146.967 84.14 146.967 88.0812 155.033C88.6455 155.033 89.2098 155.033 89.7912 155.033C91.202 151.929 92.6127 148.826 94.0662 145.628C97.4862 147.338 97.4862 147.338 99.5168 149.475C101.93 151.774 103.699 152.506 106.891 153.323C108.22 151.994 107.962 150.63 108.084 148.781C109.098 134.957 110.549 119.533 117.251 107.089C118.244 105.227 118.244 105.227 118.006 102.023C114.903 101.459 111.799 100.894 108.601 100.313Z" fill="#E9E4D6"/>
<path d="M167.596 114.848C168.442 114.848 169.289 114.848 170.161 114.848C170.755 135.877 170.755 135.877 165.993 144.132C164.176 145.628 164.176 145.628 161.825 145.895C161.19 145.807 160.555 145.719 159.901 145.628C159.619 144.217 159.337 142.806 159.046 141.353C160.078 141.168 160.078 141.168 161.13 140.979C163.253 140.719 163.253 140.719 164.176 139.643C164.335 138.328 164.452 137.009 164.55 135.689C164.788 133.012 165.118 130.8 165.886 128.207C167.1 123.806 167.312 119.392 167.596 114.848Z" fill="#E9E4D6"/>
<path d="M205.59 107.794C206.251 108.323 206.251 108.323 206.926 108.863C202.527 113.994 197.264 115.881 190.681 116.558C188.132 116.647 185.589 116.64 183.039 116.611C182.373 116.608 181.706 116.604 181.02 116.6C179.395 116.59 177.77 116.574 176.146 116.558C176.146 115.711 176.146 114.865 176.146 113.993C177.259 113.961 178.372 113.929 179.519 113.896C180.995 113.84 182.471 113.783 183.947 113.726C184.679 113.706 185.411 113.687 186.165 113.667C191.981 113.421 195.763 111.761 200.62 108.596C203.506 107.153 203.506 107.153 205.59 107.794Z" fill="#E9E4D6"/>
<path d="M140.236 90.908C140.8 90.908 141.364 90.908 141.946 90.908C143.181 92.2239 143.181 92.2239 144.617 94.0073C147.276 97.1698 150.049 99.4705 153.485 101.746C153.909 102.119 154.333 102.493 154.771 102.878C154.771 103.724 154.771 104.571 154.771 105.443C155.335 105.725 155.899 106.007 156.481 106.298C154.546 106.875 154.546 106.875 152.206 107.153C149.61 105.707 147.605 103.544 145.472 101.489C144.873 100.95 144.273 100.411 143.656 99.8554C143.093 99.3253 142.531 98.7951 141.952 98.2489C141.438 97.7644 140.923 97.2799 140.393 96.7807C139.381 95.183 139.381 95.183 139.647 92.8538C139.841 92.2117 140.036 91.5696 140.236 90.908Z" fill="#E9E4D6"/>
<path d="M56.4453 2.8428C64.9456 2.42475 71.5598 2.93805 79.5303 6.2628C79.2482 6.8271 78.966 7.3914 78.6753 7.9728C79.0168 9.76677 79.0168 9.76677 79.5303 11.3928C78.9528 11.2176 78.3753 11.0423 77.7802 10.8618C77.0175 10.6314 76.2549 10.4011 75.4691 10.1637C74.7152 9.93559 73.9613 9.70744 73.1846 9.47239C72.4572 9.25967 71.7298 9.04696 70.9803 8.8278C70.4425 8.66909 69.9046 8.51038 69.3505 8.34686C66.841 7.82248 64.3451 7.67078 61.7891 7.49186C60.7883 7.42022 59.7876 7.34858 58.7565 7.27477C57.9938 7.22297 57.2311 7.17117 56.4453 7.1178C56.4453 6.83565 56.4453 6.5535 56.4453 6.2628C58.7025 5.98065 60.9597 5.6985 63.2853 5.4078C63.2853 5.12565 63.2853 4.8435 63.2853 4.5528C61.0281 4.27065 58.7709 3.9885 56.4453 3.6978C56.4453 3.41565 56.4453 3.1335 56.4453 2.8428Z" fill="#E9E4D6"/>
<path d="M81.2413 134.513C81.5234 134.513 81.8056 134.513 82.0963 134.513C82.2168 134.974 82.3373 135.434 82.4615 135.909C83.016 138.027 83.5714 140.144 84.1269 142.261C84.3164 142.986 84.506 143.711 84.7013 144.457C85.7804 148.567 86.8963 152.662 88.0813 156.743C87.517 157.307 86.9527 157.872 86.3713 158.453C80.7232 153.257 79.9686 146.591 79.598 139.239C79.576 138.526 79.554 137.813 79.5312 137.078C80.0956 137.078 80.6599 137.078 81.2413 137.078C81.2413 136.231 81.2413 135.385 81.2413 134.513Z" fill="#E9E4D6"/>
<path d="M158.19 51.5779C158.671 53.2345 158.671 53.2345 159.045 54.9979C157.41 56.6333 154.613 56.4542 152.419 56.7614C151.365 56.9124 150.312 57.0634 149.226 57.2189C146.756 57.5016 144.426 57.6339 141.945 57.5629C141.945 56.4343 141.945 55.3057 141.945 54.1429C147.56 52.1738 152.237 51.2898 158.19 51.5779Z" fill="#E9E4D6"/>
<path d="M151.444 77.9994C152.089 78.0022 152.734 78.0049 153.398 78.0077C154.063 78.0149 154.727 78.0221 155.412 78.0295C156.09 78.0333 156.768 78.0372 157.466 78.0411C159.133 78.0512 160.799 78.0665 162.466 78.0829C162.748 78.9293 163.03 79.7758 163.321 80.6479C161.166 80.9376 159.011 81.2218 156.855 81.5029C156.253 81.5845 155.65 81.666 155.03 81.75C151.202 82.2439 147.515 82.439 143.656 82.3579C143.374 81.7936 143.091 81.2293 142.801 80.6479C143.365 80.6479 143.929 80.6479 144.511 80.6479C144.511 80.0836 144.511 79.5193 144.511 78.9379C146.885 78.2651 148.979 77.9807 151.444 77.9994Z" fill="#E9E4D6"/>
<path d="M35.9264 90.053C37.6193 90.053 39.3122 90.053 41.0564 90.053C41.3386 90.6173 41.6207 91.1816 41.9114 91.763C39.9613 93.7375 37.9723 95.6588 35.9264 97.5342C35.3445 98.0765 34.7625 98.6187 34.163 99.1774C33.6163 99.5522 33.0696 99.9269 32.5064 100.313C31.66 100.031 30.8135 99.7487 29.9414 99.458C30.5057 98.0472 31.07 96.6365 31.6514 95.183C32.2157 95.183 32.78 95.183 33.3614 95.183C33.3614 94.6187 33.3614 94.0544 33.3614 93.473C34.49 92.9087 35.6186 92.3444 36.7814 91.763C36.4993 91.1987 36.2171 90.6344 35.9264 90.053Z" fill="#E9E4D6"/>
<path d="M138.526 119.978C138.808 119.978 139.09 119.978 139.381 119.978C140.833 127.175 141.304 134.016 141.091 141.353C140.809 141.353 140.527 141.353 140.236 141.353C140.158 140.257 140.158 140.257 140.079 139.138C140.007 138.194 139.936 137.249 139.862 136.276C139.792 135.334 139.723 134.392 139.651 133.421C139.634 131.169 139.634 131.169 138.526 130.238C138.244 133.341 137.962 136.445 137.671 139.643C137.389 139.643 137.107 139.643 136.816 139.643C136.534 134.564 136.252 129.485 135.961 124.253C136.807 124.676 136.807 124.676 137.671 125.108C137.953 123.415 138.235 121.722 138.526 119.978Z" fill="#E9E4D6"/>
<path d="M27.3755 87.4878C33.7239 88.3342 33.7239 88.3342 40.2005 89.1978C38.5076 90.0442 38.5076 90.0442 36.7805 90.9078C37.0627 91.4721 37.3448 92.0364 37.6355 92.6178C36.2248 92.8999 34.814 93.1821 33.3605 93.4728C33.3605 94.0371 33.3605 94.6014 33.3605 95.1828C32.7962 94.9006 32.2319 94.6185 31.6505 94.3278C31.9327 93.7635 32.2148 93.1992 32.5055 92.6178C30.5305 92.3356 28.5554 92.0535 26.5205 91.7628C27.0848 91.4806 27.6491 91.1985 28.2305 90.9078C27.9484 89.7792 27.6662 88.6506 27.3755 87.4878Z" fill="#E9E4D6"/>
<path d="M182.131 61.8379C186.789 61.755 191.228 61.7279 195.811 62.6929C195.811 62.975 195.811 63.2572 195.811 63.5479C194.119 63.83 192.426 64.1122 190.681 64.4029C191.246 64.9672 191.81 65.5315 192.391 66.1129C188.159 66.1129 183.927 66.1129 179.566 66.1129C180.413 65.5486 181.259 64.9843 182.131 64.4029C182.131 63.5564 182.131 62.71 182.131 61.8379Z" fill="#E9E4D6"/>
<path d="M168.451 112.283C171.604 113.031 171.604 113.031 174.436 113.993C174.436 114.839 174.436 115.686 174.436 116.558C173.307 116.558 172.179 116.558 171.016 116.558C171.016 118.533 171.016 120.508 171.016 122.543C170.734 122.543 170.452 122.543 170.161 122.543C169.879 120.568 169.597 118.593 169.306 116.558C169.024 116.558 168.742 116.558 168.451 116.558C167.887 121.072 167.322 125.587 166.741 130.238C166.459 130.238 166.177 130.238 165.886 130.238C165.812 127.566 165.766 124.895 165.726 122.222C165.704 121.462 165.683 120.701 165.66 119.918C165.652 119.19 165.644 118.463 165.635 117.714C165.622 117.042 165.609 116.37 165.595 115.678C165.691 115.122 165.787 114.566 165.886 113.993C166.732 113.429 167.579 112.864 168.451 112.283Z" fill="#E9E4D6"/>
<path d="M62.2706 3.64443C63.2636 3.65214 64.2567 3.65986 65.2798 3.66781C66.0326 3.67773 66.7853 3.68765 67.5609 3.69787C67.2787 4.54432 66.9966 5.39077 66.7059 6.26287C59.5111 6.68609 59.5111 6.68609 52.1709 7.11787C52.1709 6.27142 52.1709 5.42497 52.1709 4.55287C55.5892 3.73532 58.7613 3.60898 62.2706 3.64443Z" fill="#E9E4D6"/>
<path d="M132.541 64.4028C135.17 64.5842 136.021 65.3167 137.938 67.1816C139.381 69.5328 139.381 69.5328 139.167 71.9375C138.955 72.5547 138.744 73.1719 138.526 73.8078C135.714 71.1486 133.535 68.664 131.686 65.2578C131.968 64.9757 132.25 64.6935 132.541 64.4028Z" fill="#E9E4D6"/>
<path d="M141.09 143.063C141.373 143.063 141.655 143.063 141.945 143.063C142.112 144.309 142.271 145.556 142.426 146.803C142.516 147.498 142.605 148.192 142.697 148.907C142.8 150.758 142.8 150.758 141.945 152.468C142.792 152.468 143.638 152.468 144.51 152.468C143.592 154.96 142.99 156.553 141.09 158.453C140.244 158.171 139.397 157.888 138.525 157.598C138.808 157.316 139.09 157.033 139.38 156.743C139.38 156.037 139.38 155.332 139.38 154.605C139.38 152.468 139.38 152.468 140.235 151.613C140.434 150.175 140.588 148.73 140.716 147.284C140.824 146.106 140.824 146.106 140.933 144.903C140.985 144.296 141.037 143.688 141.09 143.063Z" fill="#E9E4D6"/>
<path d="M28.231 125.108C30.578 128.196 32.8225 131.353 35.071 134.513C33.6603 134.231 32.2495 133.949 30.796 133.658C30.5139 134.222 30.2317 134.787 29.941 135.368C29.2001 134.432 28.4722 133.486 27.7501 132.536C27.3434 132.01 26.9367 131.484 26.5177 130.943C26.2366 130.428 25.9556 129.913 25.666 129.383C25.9482 128.536 26.2303 127.69 26.521 126.818C27.0853 127.1 27.6496 127.382 28.231 127.673C28.231 126.826 28.231 125.98 28.231 125.108Z" fill="#E9E4D6"/>
<path d="M23.1008 108.008C24.3705 108.854 24.3705 108.854 25.6658 109.718C26.2301 109.436 26.7944 109.154 27.3758 108.863C27.3758 113.377 27.3758 117.892 27.3758 122.543C26.8115 121.696 26.2472 120.85 25.6658 119.978C25.1015 119.414 24.5372 118.849 23.9558 118.268C23.1094 118.691 23.1094 118.691 22.2458 119.123C22.1804 115.261 22.1584 111.778 23.1008 108.008Z" fill="#E9E4D6"/>
<path d="M167.596 114.848C168.442 114.848 169.289 114.848 170.161 114.848C170.257 120.072 170.072 125.067 169.306 130.238C168.741 130.238 168.177 130.238 167.596 130.238C167.596 125.159 167.596 120.081 167.596 114.848Z" fill="#E9E4D6"/>
<path d="M130.617 59.9141C131.252 59.9846 131.887 60.0551 132.541 60.1278C133.105 61.5386 133.669 62.9493 134.251 64.4028C133.686 64.9671 133.122 65.5314 132.541 66.1128C129.382 66.1128 127.6 65.0169 124.846 63.5478C127.687 60.1804 127.687 60.1804 130.617 59.9141Z" fill="#E9E4D6"/>
<path d="M104.326 65.2578C105.172 65.54 106.019 65.8221 106.891 66.1128C106.609 72.3201 106.326 78.5274 106.036 84.9228C105.754 84.9228 105.471 84.9228 105.181 84.9228C105.103 83.8267 105.103 83.8267 105.024 82.7085C104.952 81.764 104.88 80.8194 104.807 79.8463C104.737 78.9039 104.668 77.9616 104.596 76.9907C104.579 74.7388 104.579 74.7388 103.471 73.8078C103.547 72.3617 103.681 70.9183 103.845 69.4794C103.932 68.6935 104.019 67.9077 104.109 67.0981C104.18 66.4908 104.252 65.8835 104.326 65.2578Z" fill="#E9E4D6"/>
<path d="M190.681 63.5479C193.503 63.5479 196.324 63.5479 199.231 63.5479C199.231 64.6765 199.231 65.8051 199.231 66.9679C195.624 67.1356 193.101 66.7988 189.826 65.2579C190.108 64.6936 190.39 64.1293 190.681 63.5479Z" fill="#E9E4D6"/>
<path d="M56.4453 2.84293C58.5118 2.79666 60.5773 2.7628 62.6441 2.73605C63.2271 2.72173 63.8101 2.7074 64.4108 2.69264C67.6123 2.66155 69.9744 2.775 72.6903 4.55293C72.4082 5.11723 72.126 5.68153 71.8353 6.26293C69.0138 5.98078 66.1923 5.69863 63.2853 5.40793C63.2853 5.12578 63.2853 4.84363 63.2853 4.55293C61.0281 4.27078 58.7709 3.98863 56.4453 3.69793C56.4453 3.41578 56.4453 3.13363 56.4453 2.84293Z" fill="#E9E4D6"/>
<path d="M94.0655 147.338C95.1941 147.902 96.3227 148.466 97.4855 149.048C97.2034 149.894 96.9212 150.741 96.6305 151.613C96.0662 151.613 95.5019 151.613 94.9205 151.613C94.3562 152.741 93.7919 153.87 93.2105 155.033C92.3641 154.186 91.5176 153.34 90.6455 152.468C91.6302 150.358 92.3964 149.007 94.0655 147.338Z" fill="#E9E4D6"/>
<path d="M109.456 129.383C110.867 129.665 112.278 129.947 113.731 130.238C113.449 133.341 113.167 136.445 112.876 139.643C112.594 139.643 112.312 139.643 112.021 139.643C111.739 138.232 111.457 136.821 111.166 135.368C110.884 135.368 110.602 135.368 110.311 135.368C110.029 136.779 109.747 138.189 109.456 139.643C109.174 139.643 108.892 139.643 108.601 139.643C108.531 136.085 108.616 132.848 109.456 129.383Z" fill="#E9E4D6"/>
<path d="M155.626 2.84277C156.19 3.12492 156.754 3.40707 157.336 3.69777C158.757 4.00227 160.181 4.2895 161.611 4.55277C160.756 6.26277 160.756 6.26277 158.989 6.99086C157.932 7.3182 157.932 7.3182 156.855 7.65215C156.148 7.87478 155.442 8.09742 154.714 8.3268C154.168 8.49212 153.623 8.65744 153.061 8.82777C153.061 7.98132 153.061 7.13487 153.061 6.26277C152.496 5.98062 151.932 5.69847 151.351 5.40777C153.381 4.07184 153.381 4.07184 155.626 2.84277Z" fill="#E9E4D6"/>
<path d="M119.716 99.4578C122.255 99.881 122.255 99.881 124.846 100.313C123.999 101.441 123.153 102.57 122.281 103.733C121.434 103.451 120.588 103.168 119.716 102.878C118.869 104.147 118.869 104.147 118.006 105.443C118.006 104.314 118.006 103.186 118.006 102.023C116.03 102.023 114.055 102.023 112.021 102.023C112.021 101.741 112.021 101.458 112.021 101.168C114.56 101.168 117.099 101.168 119.716 101.168C119.716 100.603 119.716 100.039 119.716 99.4578Z" fill="#E9E4D6"/>
<path d="M106.036 69.533C106.318 69.533 106.6 69.533 106.891 69.533C107.173 76.8689 107.455 84.2048 107.746 91.763C106.899 91.4808 106.053 91.1987 105.181 90.908C105.463 83.8542 105.745 76.8005 106.036 69.533Z" fill="#E9E4D6"/>
<path d="M104.326 55.8528C104.608 55.8528 104.89 55.8528 105.181 55.8528C105.181 58.3921 105.181 60.9315 105.181 63.5478C106.309 63.2656 107.438 62.9835 108.601 62.6928C108.319 64.3857 108.036 66.0786 107.746 67.8228C106.335 68.1049 104.924 68.3871 103.471 68.6778C103.753 64.4455 104.035 60.2133 104.326 55.8528Z" fill="#E9E4D6"/>
<path d="M112.021 123.398C114.403 126.971 113.556 128.653 112.876 132.803C112.029 132.803 111.183 132.803 110.311 132.803C110.311 130.264 110.311 127.724 110.311 125.108C110.875 125.108 111.439 125.108 112.021 125.108C112.021 124.544 112.021 123.979 112.021 123.398Z" fill="#E9E4D6"/>
<path d="M87.2256 126.818C88.9185 126.818 90.6114 126.818 92.3556 126.818C91.1844 129.521 90.655 130.232 88.0806 131.948C87.2342 131.666 86.3877 131.384 85.5156 131.093C86.0799 129.682 86.6442 128.271 87.2256 126.818Z" fill="#E9E4D6"/>
<path d="M152.206 78.0828C155.592 78.0828 158.978 78.0828 162.466 78.0828C162.748 78.9292 163.03 79.7757 163.321 80.6478C160.217 80.6478 157.114 80.6478 153.916 80.6478C153.916 80.0835 153.916 79.5192 153.916 78.9378C153.352 78.6556 152.787 78.3735 152.206 78.0828Z" fill="#E9E4D6"/>
<path d="M90.6455 152.468C91.492 152.75 92.3384 153.032 93.2105 153.323C92.4624 159.094 92.4624 159.094 91.5005 161.018C90.6541 160.736 89.8076 160.453 88.9355 160.163C89.059 159.687 89.1824 159.211 89.3096 158.72C89.8142 156.645 90.2381 154.563 90.6455 152.468Z" fill="#E9E4D6"/>
<path d="M101.76 72.9529C102.889 73.5172 104.018 74.0815 105.18 74.6629C104.898 76.6379 104.616 78.613 104.325 80.6479C102.632 80.0836 100.94 79.5193 99.1953 78.9379C99.7596 78.0914 100.324 77.245 100.905 76.3729C101.47 76.3729 102.034 76.3729 102.615 76.3729C102.333 75.2443 102.051 74.1157 101.76 72.9529Z" fill="#E9E4D6"/>
<path d="M102.615 36.1877C104.977 38.5495 104.82 40.6398 105.18 43.8827C104.616 43.6006 104.052 43.3184 103.47 43.0277C103.188 44.4385 102.906 45.8492 102.615 47.3027C101.132 45.0344 100.892 44.0152 101.173 41.2643C101.76 38.7527 101.76 38.7527 102.615 36.1877Z" fill="#E9E4D6"/>
<path d="M138.526 129.383C140.236 131.093 140.236 131.093 140.343 134.192C140.308 135.144 140.273 136.097 140.236 137.078C139.672 137.078 139.108 137.078 138.526 137.078C138.244 137.924 137.962 138.771 137.671 139.643C137.648 138.093 137.632 136.543 137.618 134.994C137.608 134.131 137.598 133.268 137.588 132.379C137.671 130.238 137.671 130.238 138.526 129.383Z" fill="#E9E4D6"/>
<path d="M200.086 108.863C200.65 109.145 201.215 109.427 201.796 109.718C201.796 112.283 201.796 112.283 200.941 113.993C198.75 114.527 198.75 114.527 196.666 114.848C196.933 112.817 196.933 112.817 197.521 110.573C198.367 110.008 199.214 109.444 200.086 108.863Z" fill="#E9E4D6"/>
<path d="M141.145 55.2115C141.692 55.4231 142.238 55.6347 142.801 55.8528C143.084 56.6992 143.366 57.5457 143.656 58.4178C141.964 58.9821 140.271 59.5464 138.526 60.1278C137.962 59.5635 137.398 58.9992 136.816 58.4178C137.381 58.1356 137.945 57.8535 138.526 57.5628C138.244 56.9985 137.962 56.4342 137.671 55.8528C139.381 54.9978 139.381 54.9978 141.145 55.2115Z" fill="#E9E4D6"/>
<path d="M104.326 51.5779C105.173 51.5779 106.019 51.5779 106.891 51.5779C106.609 55.528 106.327 59.4781 106.036 63.5479C105.754 63.5479 105.472 63.5479 105.181 63.5479C104.899 59.5978 104.617 55.6477 104.326 51.5779Z" fill="#E9E4D6"/>
<path d="M178.711 4.55293C180.688 4.28574 180.688 4.28574 182.986 4.55293C184.536 6.69043 184.536 6.69043 185.551 8.82793C183.858 8.82793 182.165 8.82793 180.421 8.82793C180.421 7.98148 180.421 7.13503 180.421 6.26293C179.857 6.26293 179.292 6.26293 178.711 6.26293C178.711 5.69863 178.711 5.13433 178.711 4.55293Z" fill="#E9E4D6"/>
<path d="M41.0557 139.643C46.1344 140.489 46.1344 140.489 51.3157 141.353C50.4692 142.622 50.4692 142.622 49.6057 143.918C46.7735 143.704 46.7735 143.704 43.6207 143.063C42.7742 141.934 41.9278 140.806 41.0557 139.643Z" fill="#E9E4D6"/>
<path d="M136.816 117.413C138.783 120.364 138.644 121.034 138.205 124.413C138.11 125.184 138.015 125.954 137.918 126.748C137.836 127.335 137.755 127.923 137.671 128.528C137.388 128.528 137.106 128.528 136.816 128.528C136.648 127.157 136.49 125.785 136.335 124.413C136.201 123.267 136.201 123.267 136.064 122.099C135.961 119.978 135.961 119.978 136.816 117.413Z" fill="#E9E4D6"/>
<path d="M66.7057 140.498C66.9879 141.344 67.27 142.191 67.5607 143.063C65.5857 143.063 63.6106 143.063 61.5757 143.063C61.2936 142.217 61.0114 141.37 60.7207 140.498C63.3716 139.614 64.1887 139.491 66.7057 140.498Z" fill="#E9E4D6"/>
<path d="M88.9362 62.6928C89.2183 63.5392 89.5005 64.3857 89.7912 65.2578C88.3804 65.5399 86.9697 65.8221 85.5162 66.1128C84.6697 64.9842 83.8233 63.8556 82.9512 62.6928C85.2312 61.5528 86.5138 62.1191 88.9362 62.6928Z" fill="#E9E4D6"/>
<path d="M88.9361 15.6677C90.3468 17.0785 91.7576 18.4892 93.2111 19.9427C92.9289 20.507 92.6468 21.0713 92.3561 21.6527C90.6995 21.0115 90.6995 21.0115 88.9361 19.9427C88.2414 18.1793 88.2414 18.1793 88.0811 16.5227C88.3632 16.2406 88.6454 15.9584 88.9361 15.6677Z" fill="#E9E4D6"/>
<path d="M106.036 98.6028C106.882 98.8849 107.729 99.1671 108.601 99.4578C108.601 100.869 108.601 102.279 108.601 103.733C108.036 103.733 107.472 103.733 106.891 103.733C106.609 104.297 106.326 104.861 106.036 105.443C105.71 103.454 105.426 101.458 105.181 99.4578C105.463 99.1756 105.745 98.8935 106.036 98.6028Z" fill="#E9E4D6"/>
<path d="M194.101 31.9128C194.383 31.9128 194.665 31.9128 194.956 31.9128C195.238 35.8629 195.52 39.813 195.811 43.8828C194.965 44.165 194.118 44.4471 193.246 44.7378C193.528 40.5056 193.81 36.2733 194.101 31.9128Z" fill="#E9E4D6"/>
<path d="M79.5308 86.6328C81.2408 87.4878 81.2408 87.4878 82.9508 90.0528C81.2579 90.8993 81.2579 90.8993 79.5308 91.7628C78.6844 90.9164 77.8379 90.0699 76.9658 89.1978C77.8123 88.3514 78.6587 87.5049 79.5308 86.6328Z" fill="#E9E4D6"/>
<path d="M190.681 48.158C190.963 48.158 191.245 48.158 191.536 48.158C191.849 52.8605 191.849 52.8605 190.36 54.8911C188.971 55.853 188.971 55.853 187.261 55.853C188.286 53.2169 189.379 50.6693 190.681 48.158Z" fill="#E9E4D6"/>
<path d="M143.655 146.483C144.22 146.765 144.784 147.047 145.365 147.338C145.365 149.031 145.365 150.724 145.365 152.468C144.237 152.468 143.108 152.468 141.945 152.468C142.51 150.493 143.074 148.518 143.655 146.483Z" fill="#E9E4D6"/>
<path d="M91.5011 122.543C92.3475 122.825 93.194 123.107 94.0661 123.398C94.0661 123.962 94.0661 124.526 94.0661 125.108C93.5018 125.108 92.9375 125.108 92.3561 125.108C92.3561 125.672 92.3561 126.236 92.3561 126.818C91.5096 127.1 90.6632 127.382 89.7911 127.673C89.2268 127.108 88.6625 126.544 88.0811 125.963C89.2097 124.834 90.3383 123.706 91.5011 122.543Z" fill="#E9E4D6"/>
<path d="M178.71 62.6929C183.789 63.5393 183.789 63.5393 188.97 64.4029C188.97 64.685 188.97 64.9672 188.97 65.2579C185.303 65.2579 181.635 65.2579 177.855 65.2579C178.138 64.4114 178.42 63.565 178.71 62.6929Z" fill="#E9E4D6"/>
<path d="M114.586 57.5628C114.868 58.1271 115.15 58.6914 115.441 59.2728C113.183 59.555 110.926 59.8371 108.601 60.1278C108.601 59.2814 108.601 58.4349 108.601 57.5628C111.265 56.6748 112.043 56.6306 114.586 57.5628Z" fill="#E9E4D6"/>
<path d="M114.586 114.848C115.15 115.13 115.715 115.412 116.296 115.703C116.014 117.678 115.732 119.653 115.441 121.688C114.595 121.688 113.748 121.688 112.876 121.688C113.323 119.326 113.824 117.134 114.586 114.848Z" fill="#E9E4D6"/>
<path d="M36.7814 90.908C37.0636 91.4723 37.3457 92.0366 37.6364 92.618C36.2257 92.9001 34.8149 93.1823 33.3614 93.473C33.3614 94.0373 33.3614 94.6016 33.3614 95.183C32.7971 94.9008 32.2328 94.6187 31.6514 94.328C31.9336 93.7637 32.2157 93.1994 32.5064 92.618C31.66 92.3358 30.8135 92.0537 29.9414 91.763C32.4451 90.9284 34.1789 90.8376 36.7814 90.908Z" fill="#E9E4D6"/>
<path d="M31.6514 95.1829C32.4979 95.7472 33.3443 96.3115 34.2164 96.8929C33.6521 98.0215 33.0878 99.1501 32.5064 100.313C31.66 100.031 30.8135 99.7486 29.9414 99.4579C30.5057 98.0471 31.07 96.6364 31.6514 95.1829Z" fill="#E9E4D6"/>
<path d="M29.0856 88.3429C28.8034 89.1894 28.5213 90.0358 28.2306 90.9079C25.7791 90.4176 24.929 90.1714 23.1006 88.3429C25.3806 87.2029 26.6632 87.7692 29.0856 88.3429Z" fill="#E9E4D6"/>
</svg>
