<svg width="40" height="40" viewBox="0 0 40 40" fill="none" xmlns="http://www.w3.org/2000/svg">
<path d="M6.66663 18.3333V25C6.66663 30.4997 6.66663 33.2495 8.37518 34.9582C10.0837 36.6667 12.8336 36.6667 18.3333 36.6667H21.6666C27.1663 36.6667 29.9161 36.6667 31.6248 34.9582C33.3333 33.2495 33.3333 30.4997 33.3333 25V18.3333" stroke="#141B34" stroke-width="1.5" stroke-linecap="round" stroke-linejoin="round"/>
<path d="M5 15C5 13.7538 5 13.1308 5.33493 12.6667C5.55435 12.3626 5.86995 12.1101 6.25 11.9346C6.83013 11.6667 7.60897 11.6667 9.16667 11.6667H30.8333C32.391 11.6667 33.1698 11.6667 33.75 11.9346C34.13 12.1101 34.4457 12.3626 34.665 12.6667C35 13.1308 35 13.7538 35 15C35 16.2461 35 16.8692 34.665 17.3333C34.4457 17.6373 34.13 17.8898 33.75 18.0653C33.1698 18.3333 32.391 18.3333 30.8333 18.3333H9.16667C7.60897 18.3333 6.83013 18.3333 6.25 18.0653C5.86995 17.8898 5.55435 17.6373 5.33493 17.3333C5 16.8692 5 16.2461 5 15Z" stroke="#141B34" stroke-width="1.5" stroke-linejoin="round"/>
<path d="M10 6.30952C10 4.66582 11.3325 3.33334 12.9762 3.33334H13.5714C17.1218 3.33334 20 6.2115 20 9.7619V11.6667H15.3571C12.3985 11.6667 10 9.26819 10 6.30952Z" stroke="#141B34" stroke-width="1.5" stroke-linejoin="round"/>
<path d="M30 6.30952C30 4.66582 28.6675 3.33334 27.0238 3.33334H26.4285C22.8782 3.33334 20 6.2115 20 9.7619V11.6667H24.6428C27.6015 11.6667 30 9.26819 30 6.30952Z" stroke="#141B34" stroke-width="1.5" stroke-linejoin="round"/>
<path d="M20 18.3333V36.6667" stroke="#141B34" stroke-width="1.5" stroke-linecap="round" stroke-linejoin="round"/>
</svg>
