<svg width="99" height="64" viewBox="0 0 99 64" fill="none" xmlns="http://www.w3.org/2000/svg">
<path d="M38.6719 1.81924C43.7537 4.67778 47.067 8.65653 50.1187 13.5392C50.3668 13.1803 50.6148 12.8214 50.8704 12.4516C54.1547 7.93843 58.0117 4.2254 63.6708 3.13408C69.3901 2.63351 73.4179 4.32204 78.0785 7.42908C81.004 10.018 82.7744 13.7942 83.1058 17.6384C83.0101 18.3659 83.0101 18.3659 82.9125 19.108C83.935 18.7591 84.9525 18.3953 85.9675 18.0252C86.5346 17.8242 87.1017 17.6232 87.686 17.4161C89.2106 16.7702 89.2106 16.7702 89.6051 15.3085C89.6426 14.9288 89.6801 14.5491 89.7187 14.158C93.425 13.9629 95.6807 14.3546 98.9999 16.0142C98.9999 16.831 98.9999 17.6477 98.9999 18.4892C97.2597 19.8041 97.2597 19.8041 95.2875 20.9642C94.6749 21.3726 94.0623 21.781 93.4312 22.2017C92.0777 21.9697 92.0777 21.9697 90.9562 21.583C90.9562 21.1746 90.9562 20.7662 90.9562 20.3455C88.3018 20.958 85.6473 21.5706 82.9125 22.2017C82.8526 22.9236 82.7928 23.6454 82.7312 24.3891C82.3881 27.0869 81.4909 29.3507 80.2441 31.7537C80.0286 32.176 79.8131 32.5982 79.5911 33.0333C77.1041 37.7408 74.0287 42.0125 70.8683 46.2852C69.9383 47.544 69.0194 48.8102 68.1036 50.0793C64.9056 54.4972 61.6244 58.8234 58.1625 63.0392C48.6057 59.5868 38.7822 48.663 33.4125 40.1455C33.4125 39.7371 33.4125 39.3287 33.4125 38.908C31.7228 39.6922 30.0344 40.4789 28.3465 41.2669C27.8707 41.4875 27.3949 41.708 26.9047 41.9352C24.911 42.8679 22.9991 43.7931 21.1221 44.948C19.8 45.7142 19.8 45.7142 17.9437 45.7142C17.8161 46.1864 17.6885 46.6586 17.557 47.1451C16.3604 50.3542 14.6777 53.257 12.9937 56.233C12.177 56.0288 11.3602 55.8246 10.5187 55.6142C10.7102 55.0527 10.9016 54.4912 11.0988 53.9126C11.5881 52.4159 12.0065 50.9538 12.375 49.4267C11.7409 49.6126 11.1068 49.7984 10.4535 49.9899C9.61167 50.2279 8.76974 50.4655 7.92773 50.7029C7.30261 50.8877 7.30261 50.8877 6.66485 51.0763C4.22348 51.7551 2.44065 52.0365 0 51.283C0.204187 50.4662 0.408375 49.6495 0.61875 48.808C1.31905 48.6365 2.01935 48.465 2.74087 48.2883C3.65773 48.062 4.57458 47.8356 5.4914 47.6091C5.95322 47.4963 6.41503 47.3834 6.89084 47.2671C9.38667 46.672 9.38667 46.672 11.7562 45.7142C8.48925 44.6933 5.22225 43.6723 1.85625 42.6205C2.06044 41.5995 2.26462 40.5786 2.475 39.5267C2.96545 39.6722 2.96545 39.6722 3.46581 39.8205C4.97601 40.2618 6.49029 40.687 8.00507 41.1123C8.51913 41.265 9.03319 41.4177 9.56282 41.5751C15.0513 43.0914 19.023 42.7001 24.0285 39.9678C24.4836 39.7074 24.9386 39.447 25.4074 39.1787C25.884 38.9159 26.3605 38.653 26.8516 38.3823C28.0119 37.7408 29.166 37.0881 30.3187 36.433C29.6463 34.3169 28.9538 32.345 27.8824 30.4002C24.8143 24.4357 22.9816 17.1497 24.5542 10.518C25.802 6.71778 27.2023 4.30268 30.3187 1.78298C33.3239 0.781255 35.7533 0.583411 38.6719 1.81924ZM29.7 5.57283C26.6197 10.0008 26.7957 14.5636 27.4691 19.7509C29.2754 29.1439 34.4813 37.0122 40.2187 44.4767C40.6622 45.0677 41.1057 45.6588 41.5626 46.2677C41.9359 46.6976 42.3091 47.1275 42.6937 47.5705C43.1021 47.5705 43.5105 47.5705 43.9312 47.5705C44.1354 48.183 44.3396 48.7956 44.55 49.4267C46.0787 51.0033 47.8127 52.3546 49.5 53.758C50.0264 54.2214 50.5528 54.6848 51.0952 55.1622C51.628 55.6177 52.1608 56.0731 52.7097 56.5423C53.2035 56.9698 53.6972 57.3974 54.2059 57.8378C55.6188 58.8099 55.6188 58.8099 57.1884 58.8409C59.7473 57.6333 60.9376 55.4797 62.4937 53.1779C63.2039 52.1576 63.9145 51.1376 64.6255 50.118C65.169 49.3304 65.169 49.3304 65.7234 48.527C66.7876 47.0051 67.8787 45.5084 68.9858 44.0175C76.3083 34.5879 76.3083 34.5879 79.8187 23.4392C74.6364 24.8903 69.7322 26.6732 64.8069 28.8305C62.6193 29.7703 61.2 30.2455 58.7812 30.2455C58.7812 29.8371 58.7812 29.4287 58.7812 29.008C65.7653 26.0459 72.7618 23.1302 79.8187 20.3455C79.8831 15.9397 79.0303 13.1189 76.1135 9.77597C73.1938 6.99238 70.5412 5.98835 66.5156 5.80486C61.5071 6.01931 58.1441 8.10287 54.7883 11.7434C52.0383 15.1254 51.1578 17.4729 51.5109 21.8924C51.6515 23.0286 51.8015 24.1638 51.975 25.2955C51.3624 25.2955 50.7498 25.2955 50.1187 25.2955C50.0278 24.7491 49.9369 24.2028 49.8432 23.6398C48.4039 15.9388 46.0343 10.2012 39.6 5.49548C36.4363 3.38635 32.8118 3.36863 29.7 5.57283Z" fill="#455F2C"/>
<path d="M76.725 23.4392C73.9581 25.9928 70.8921 27.2157 67.4438 28.5825C66.6183 28.9277 66.6183 28.9277 65.7761 29.2798C65.2417 29.494 64.7073 29.7082 64.1567 29.9288C63.6741 30.1237 63.1916 30.3185 62.6944 30.5193C60.9894 30.9282 59.8401 30.6973 58.1625 30.2454C58.7813 28.3892 58.7813 28.3892 59.9013 27.7339C60.3787 27.5401 60.8562 27.3464 61.3481 27.1468C61.8682 26.9323 62.3882 26.7177 62.924 26.4967C63.4712 26.2789 64.0183 26.0612 64.5821 25.8368C65.1244 25.6143 65.6668 25.3918 66.2256 25.1625C70.0989 23.5812 72.4828 22.7188 76.725 23.4392Z" fill="#455F2C"/>
<path d="M90.9563 14.1581C91.9493 14.2289 92.9418 14.3078 93.934 14.3901C94.4867 14.4332 95.0395 14.4763 95.609 14.5206C97.1438 14.7768 97.1438 14.7768 99 16.0143C99 16.8311 99 17.6478 99 18.4893C97.2598 19.8042 97.2598 19.8042 95.2875 20.9643C94.675 21.3727 94.0624 21.7811 93.4313 22.2018C92.8187 22.2018 92.2061 22.2018 91.575 22.2018C91.575 20.9767 91.575 19.7516 91.575 18.4893C92.1876 18.4893 92.8001 18.4893 93.4313 18.4893C93.4313 17.6726 93.4313 16.8558 93.4313 16.0143C92.4103 16.2185 91.3894 16.4227 90.3375 16.6331C90.5417 15.8163 90.7459 14.9996 90.9563 14.1581Z" fill="#455F2C"/>
<path d="M2.47458 39.5267C8.29393 41.0581 8.29393 41.0581 14.2308 42.6205C14.2308 43.0289 14.2308 43.4372 14.2308 43.858C9.80091 45.2756 6.03428 44.2123 1.85583 42.6205C2.06002 41.5995 2.26421 40.5786 2.47458 39.5267Z" fill="#455F2C"/>
<path d="M89.7189 14.1581C90.9564 14.7768 90.9564 14.7768 91.5751 15.3956C92.1877 15.5998 92.8003 15.804 93.4314 16.0143C93.8568 17.2905 93.8568 17.2905 94.0501 18.4893C93.4376 18.7956 93.4376 18.7956 92.8126 19.1081C92.4043 18.9039 91.9959 18.6997 91.5751 18.4893C91.5751 19.5103 91.5751 20.5312 91.5751 21.5831C91.371 21.1747 91.1668 20.7663 90.9564 20.3456C90.2928 20.5625 89.6292 20.7795 88.9455 21.003C86.054 21.7259 86.054 21.7259 84.1501 20.9643C84.5585 20.556 84.9669 20.1476 85.3876 19.7268C84.9793 19.3185 84.5709 18.9101 84.1501 18.4893C84.5003 18.384 84.8504 18.2788 85.2112 18.1703C85.665 18.0203 86.1189 17.8704 86.5865 17.7159C87.0387 17.5723 87.491 17.4288 87.9569 17.2808C89.2274 16.7254 89.2274 16.7254 89.5666 15.3279C89.6169 14.9419 89.6671 14.5558 89.7189 14.1581Z" fill="#455F2C"/>
<path d="M13.6126 48.808C14.2252 49.0122 14.8377 49.2164 15.4689 49.4267C15.1531 52.1425 14.527 53.9665 12.9939 56.233C12.1771 56.0288 11.3604 55.8246 10.5189 55.6142C11.277 53.1066 12.1887 51.0085 13.6126 48.808Z" fill="#455F2C"/>
<path d="M14.2311 45.0956C14.4353 45.9123 14.6395 46.7291 14.8499 47.5706C14.0331 47.7748 13.2164 47.979 12.3749 48.1893C12.3749 48.5977 12.3749 49.0061 12.3749 49.4268C10.333 49.631 8.29113 49.8352 6.18738 50.0456C6.80613 48.1893 6.80613 48.1893 8.46902 47.2225C10.3683 46.3983 12.2543 45.7075 14.2311 45.0956Z" fill="#455F2C"/>
<path d="M81.0561 16.0143C81.4645 16.0143 81.8729 16.0143 82.2936 16.0143C82.2936 17.2394 82.2936 18.4645 82.2936 19.7268C83.5187 19.5226 84.7439 19.3184 86.0061 19.108C86.0061 19.7206 86.0061 20.3332 86.0061 20.9643C81.4154 21.7627 81.4154 21.7627 79.8186 20.9643C80.36 16.7104 80.36 16.7104 81.0561 16.0143Z" fill="#455F2C"/>
<path d="M30.9375 35.1954C31.3076 35.3996 31.6777 35.6038 32.059 35.8142C33.4458 36.5616 33.4458 36.5616 35.2688 36.4329C35.6771 37.4539 36.0855 38.4748 36.5063 39.5267C36.0979 39.5267 35.6895 39.5267 35.2688 39.5267C34.8604 39.9351 34.452 40.3434 34.0313 40.7642C33.8271 40.1516 33.6229 39.5391 33.4125 38.9079C33.0041 38.7037 32.5958 38.4996 32.175 38.2892C31.35 37.8767 30.525 37.4642 29.7 37.0517C30.1084 36.4391 30.5168 35.8266 30.9375 35.1954Z" fill="#455F2C"/>
<path d="M93.4312 16.6331C94.0438 16.8372 94.6563 17.0414 95.2874 17.2518C95.0833 18.0686 94.8791 18.8853 94.6687 19.7268C95.0771 19.931 95.4854 20.1352 95.9062 20.3456C93.6632 22.2018 93.6632 22.2018 91.575 22.2018C91.575 20.9767 91.575 19.7516 91.575 18.4893C92.1875 18.4893 92.8001 18.4893 93.4312 18.4893C93.4312 17.8767 93.4312 17.2642 93.4312 16.6331Z" fill="#455F2C"/>
<path d="M32.7933 1.78315C36.2203 1.55469 36.2203 1.55469 37.666 2.71127C37.8957 3.01755 38.1254 3.32383 38.3621 3.6394C36.5087 4.25718 35.7803 4.26268 33.9148 3.98744C33.1364 3.87259 32.3579 3.75773 31.5558 3.6394C31.9642 3.43521 32.3726 3.23102 32.7933 3.02065C32.7933 2.61227 32.7933 2.2039 32.7933 1.78315Z" fill="#455F2C"/>
<path d="M81.6746 20.3455C82.4913 20.7538 83.3081 21.1622 84.1496 21.583C83.537 21.8892 83.537 21.8892 82.9121 22.2017C82.9121 23.2226 82.9121 24.2436 82.9121 25.2955C82.5037 24.6829 82.0953 24.0703 81.6746 23.4392C81.2662 23.4392 80.8578 23.4392 80.4371 23.4392C80.2329 24.0518 80.0287 24.6643 79.8183 25.2955C79.3543 24.2126 79.3543 24.2126 79.1996 22.8205C80.3984 21.4283 80.3984 21.4283 81.6746 20.3455Z" fill="#455F2C"/>
<path d="M46.4062 52.5204C49.9093 53.4342 49.9093 53.4342 50.9695 55.0727C51.161 55.647 51.161 55.647 51.3562 56.2329C50.5395 56.4371 49.7227 56.6413 48.8812 56.8516C48.4729 55.8307 48.0645 54.8098 47.6437 53.7579C47.2354 53.7579 46.827 53.7579 46.4062 53.7579C46.4062 53.3495 46.4062 52.9411 46.4062 52.5204Z" fill="#455F2C"/>
<path d="M72.3935 22.8206C73.8228 23.0247 75.2522 23.2289 76.7248 23.4393C75.99 24.3674 75.99 24.3674 74.8685 25.2956C73.2056 25.4116 73.2056 25.4116 71.7748 25.2956C71.979 24.4788 72.1832 23.6621 72.3935 22.8206Z" fill="#455F2C"/>
<path d="M63.7309 4.25791C63.5268 5.07466 63.3226 5.89141 63.1122 6.73291C62.0913 6.9371 61.0703 7.14128 60.0184 7.35166C60.0184 6.94328 60.0184 6.53491 60.0184 6.11416C59.6101 5.70579 59.2017 5.29741 58.7809 4.87666C61.6427 3.56182 61.6427 3.56182 63.7309 4.25791Z" fill="#455F2C"/>
<path d="M55.6873 58.7079C56.5041 58.9121 57.3208 59.1163 58.1623 59.3266C58.1623 59.9392 58.1623 60.5518 58.1623 61.1829C56.7701 61.6469 56.7701 61.6469 55.0686 61.8016C53.6377 60.6028 53.6377 60.6028 52.5936 59.3266C54.125 59.6329 54.125 59.6329 55.6873 59.9454C55.6873 59.537 55.6873 59.1286 55.6873 58.7079Z" fill="#455F2C"/>
<path d="M50.7374 12.9207C51.3867 14.8686 51.3975 15.3916 50.7374 17.2519C50.329 17.6603 49.9207 18.0687 49.4999 18.4894C49.0745 17.4453 49.0745 17.4453 48.8812 16.0144C49.7706 14.3128 49.7706 14.3128 50.7374 12.9207Z" fill="#455F2C"/>
<path d="M16.0875 44.4768C16.7001 44.681 17.3126 44.8852 17.9438 45.0956C17.5354 45.0956 17.127 45.0956 16.7063 45.0956C16.7318 45.7847 16.7573 46.4738 16.7836 47.1838C16.7063 49.4268 16.7063 49.4268 15.4688 50.6643C15.0604 49.8476 14.652 49.0308 14.2313 48.1893C14.6396 48.1893 15.048 48.1893 15.4688 48.1893C15.6729 46.9642 15.8771 45.7391 16.0875 44.4768Z" fill="#455F2C"/>
</svg>
