<svg width="90" height="90" viewBox="0 0 90 90" fill="none" xmlns="http://www.w3.org/2000/svg">
<path d="M26.25 28.125L37.2826 34.6479C43.7145 38.4506 46.2855 38.4506 52.7175 34.6479L63.75 28.125" stroke="white" stroke-width="4" stroke-linecap="round" stroke-linejoin="round"/>
<path d="M43.125 73.1096C41.3764 73.0867 35.8756 73.1539 34.1206 73.1096C22.3137 72.8122 16.4103 72.6637 12.1686 68.3977C7.92686 64.1317 7.80428 58.3729 7.55914 46.8551C7.48031 43.1516 7.48027 39.4702 7.5591 35.7668C7.80427 24.2491 7.92683 18.4902 12.1686 14.2242C16.4103 9.95816 22.3137 9.80958 34.1206 9.51236C41.3974 9.32921 48.6026 9.32921 55.8795 9.5124C67.6864 9.80962 73.5896 9.95823 77.8312 14.2242C82.0732 18.4902 82.1959 24.2491 82.4407 35.7669C82.4936 38.2399 82.5109 40.7032 82.4932 43.17" stroke="white" stroke-width="4" stroke-linecap="round" stroke-linejoin="round"/>
<path d="M56.3063 55.8247C60.3285 53.4258 63.8393 54.3926 65.9486 55.9323C66.8134 56.5638 67.2458 56.8796 67.5 56.8796C67.7543 56.8796 68.1866 56.5638 69.0514 55.9323C71.1608 54.3926 74.6715 53.4258 78.6938 55.8247C83.973 58.9728 85.1674 69.3592 72.9908 78.1214C70.6714 79.7906 69.5119 80.6249 67.5 80.6249C65.4881 80.6249 64.3286 79.7906 62.0093 78.1214C49.8326 69.3592 51.027 58.9728 56.3063 55.8247Z" stroke="white" stroke-width="4" stroke-linecap="round"/>
</svg>
