<svg width="122" height="120" viewBox="0 0 122 120" fill="none" xmlns="http://www.w3.org/2000/svg">
<path d="M101.813 31.7306C106.268 35.2062 108.957 40.7296 109.932 46.2011C110.485 51.5045 109.791 57.0078 106.506 61.3668C105.826 62.1674 105.134 62.9425 104.405 63.6984C104.837 63.7796 105.269 63.8608 105.714 63.9444C110.431 64.8836 114.803 65.8378 118.231 69.424C120.688 73.4625 121.702 77.3519 120.888 82.0456C119.851 86.0952 117.725 89.5819 114.298 92.0281C113.554 92.4654 112.799 92.8832 112.033 93.2806C111.669 93.4774 111.304 93.6742 110.929 93.877C106.464 95.8907 100.071 96.0406 95.347 94.712C95.3203 95.4907 95.3203 95.4907 95.293 96.2851C94.8871 106.039 94.8871 106.039 92.5461 110.1C91.533 110.935 91.533 110.935 90.4212 111.106C88.7285 110.878 88.0788 110.196 86.855 109.026C86.2899 108.495 86.2899 108.495 85.7134 107.952C85.4313 107.677 85.1492 107.401 84.8586 107.117C82.99 108.594 82.4634 110.865 81.6824 113.022C80.934 115.006 80.0733 116.51 78.6609 118.091C78.0316 117.934 77.4023 117.777 76.7539 117.614C76.7435 117.144 76.7435 117.144 76.7328 116.663C76.4985 101.013 76.4985 101.013 71.0329 86.6008C71.0329 86.2859 71.0329 85.971 71.0329 85.6465C69.2018 86.4314 68.5711 87.2926 67.7292 89.1169C66.5854 92.0331 65.6789 95.0366 64.8352 98.0519C64.6547 98.6879 64.6547 98.6879 64.4706 99.3368C63.4759 103.042 63.0125 106.702 62.6601 110.517C62.5541 111.662 62.4444 112.806 62.3305 113.95C62.2846 114.448 62.2388 114.947 62.1916 115.46C61.9748 116.66 61.9748 116.66 61.0213 117.614C57.6104 117.614 55.5897 116.299 52.9166 114.274C52.8244 114.568 52.7322 114.861 52.6372 115.163C52.5131 115.549 52.389 115.935 52.2611 116.332C52.0785 116.905 52.0785 116.905 51.8923 117.489C51.4863 118.569 51.4863 118.569 50.5329 120C49.3379 119.822 48.7699 119.69 47.9685 118.759C45.844 115.124 44.5678 111.746 43.8584 107.595C42.1584 107.595 41.1359 108.075 39.5677 108.728C33.4827 111.107 28.356 111.55 22.2167 109.132C18.1191 107.208 15.6389 104.225 13.436 100.348C12.1001 96.0554 11.8562 91.6717 13.8234 87.555C15.0791 85.4973 16.4072 83.5377 18.1141 81.8294C17.7509 81.7249 17.3877 81.6203 17.0135 81.5126C10.7911 79.6001 5.88979 76.3153 2.67946 70.5274C2.24627 69.6906 1.82811 68.8458 1.428 67.9926C1.24917 67.6506 1.07033 67.3087 0.886075 66.9563C-0.631836 61.9796 -0.193029 55.1231 2.15243 50.527C3.24151 48.7641 4.37124 47.1423 5.71872 45.5674C6.00326 45.2144 6.2878 44.8613 6.58096 44.4976C8.85682 41.7753 11.3086 39.8199 14.3001 37.9333C14.7205 37.6534 15.1409 37.3736 15.574 37.0853C22.697 32.5854 31.3886 30.1213 39.7819 31.5293C46.6068 33.3419 51.3444 37.9853 54.8534 43.8974C57.8503 49.1645 59.3205 54.9298 60.5445 60.8356C61.8031 60.8356 63.0617 60.8356 64.3585 60.8356C64.4203 60.367 64.4203 60.367 64.4833 59.8888C65.0395 56.2728 66.1144 53.1544 67.6957 49.8616C67.9145 49.4052 68.1333 48.9489 68.3587 48.4787C72.8876 39.94 80.9959 33.0557 90.1028 29.822C94.3416 28.8347 98.1193 29.415 101.813 31.7306ZM87.2423 33.6391C86.924 33.7769 86.6056 33.9146 86.2776 34.0566C81.7044 36.1489 77.9574 39.2705 74.8469 43.1817C74.539 43.528 74.2311 43.8743 73.9139 44.2311C69.7759 49.0218 67.4733 54.6536 66.2655 60.8356C69.3955 62.8268 69.3955 62.8268 72.9399 63.6984C74.2171 63.1497 75.2602 62.4373 76.4038 61.6482C80.0389 59.3822 84.4481 58.6408 88.6725 58.45C88.5152 59.0798 88.3579 59.7096 88.1958 60.3585C87.8891 60.3653 87.5825 60.372 87.2665 60.379C82.8322 60.6132 78.3325 61.7779 74.8469 64.6527C75.4116 65.937 76.1114 66.9789 76.9625 68.0821C78.3454 69.9657 78.9918 71.9613 79.6144 74.1953C80.0744 74.092 80.0744 74.092 80.5437 73.9866C86.3979 72.783 91.5001 73.0891 97.254 74.6725C97.254 75.3023 97.254 75.9321 97.254 76.581C96.935 76.4777 96.6161 76.3743 96.2875 76.2679C91.4455 74.8629 85.6544 74.0998 80.8062 75.8951C79.3553 76.7034 79.1545 77.0215 78.4225 78.6088C78.9514 82.579 82.6698 84.9278 85.6818 87.2396C90.7621 90.9692 95.581 92.8902 101.872 92.9526C102.328 92.9664 102.784 92.9803 103.253 92.9945C108.02 93.0368 111.912 91.3267 115.37 88.0322C118.357 84.2387 119.187 80.4038 118.708 75.6267C117.875 72.2083 115.917 69.8797 112.987 67.9926C108.952 65.9586 104.054 66.2237 99.6377 66.0841C99.6377 65.4543 99.6377 64.8245 99.6377 64.1756C99.9622 64.0968 100.287 64.0181 100.621 63.937C104.073 62.1729 105.974 58.8017 107.323 55.2759C108.877 49.355 107.613 43.9921 104.763 38.7683C102.621 35.2608 100.294 32.9709 96.3005 31.7306C92.9077 31.2165 90.2852 32.2107 87.2423 33.6391ZM10.9629 43.1817C10.4467 43.5797 9.93027 43.9774 9.4135 44.3746C5.61934 47.8266 2.62482 52.823 2.28465 58.0213C2.21321 63.3956 3.00864 67.4414 6.19546 71.8097C6.39519 72.0938 6.59492 72.378 6.80071 72.6707C9.93448 76.738 14.3015 78.9414 19.3023 79.6003C20.3357 79.7228 21.3682 79.8297 22.4048 79.9209C22.5622 80.5507 22.7195 81.1805 22.8816 81.8294C22.5374 81.9475 22.1933 82.0656 21.8387 82.1873C18.3104 83.7567 16.6354 86.4178 15.2536 89.9407C14.2464 94.9867 15.0117 98.787 17.7156 103.123C19.917 105.969 22.7803 107.263 26.2188 108.072C33.7649 108.753 40.9466 106.952 47.0162 102.22C48.7571 100.76 50.3662 99.1895 51.9631 97.5748C52.2925 97.2556 52.6219 96.9364 52.9613 96.6075C56.2236 93.2208 58.8409 88.0191 59.1143 83.2608C58.7769 81.8495 58.7769 81.8495 58.1608 80.398C57.7982 78.6562 57.5006 76.9044 57.2073 75.1496C50.7171 76.4419 44.8786 79.1957 40.8043 84.6326C40.3893 85.2869 39.9781 85.9436 39.5677 86.6008C38.8597 86.8369 38.8597 86.8369 38.1375 87.0779C39.9519 81.9505 43.7363 78.6802 48.5365 76.3126C48.8294 76.168 49.1223 76.0235 49.4241 75.8745C51.505 74.8606 53.5874 73.9862 55.7771 73.2411C55.7771 72.7687 55.7771 72.2963 55.7771 71.8097C54.9118 70.9875 54.0759 70.2846 53.1252 69.5731C52.847 69.3636 52.5688 69.154 52.2821 68.9381C46.8781 64.9756 41.2261 62.6083 34.8002 60.8356C34.1693 60.6561 33.5386 60.476 32.9081 60.2951C32.1928 60.0903 32.1928 60.0903 31.463 59.8814C31.463 59.5665 31.463 59.2516 31.463 58.9271C40.1588 59.5273 47.2704 63.231 54.1187 68.3563C55.3112 69.2486 56.259 69.9029 57.684 70.3783C58.9204 60.1921 57.1291 50.2465 51.0096 41.7503C47.2039 37.1515 42.327 34.0443 36.3068 33.462C26.7523 33.1747 18.1382 36.9316 10.9629 43.1817ZM60.6041 64.265C59.4098 67.2533 59.4879 70.2165 59.4718 73.3902C59.462 73.8708 59.4522 74.3515 59.442 74.8467C59.4256 78.0043 59.5219 81.0857 61.7229 83.5783C62.7792 84.5015 63.4272 84.6003 64.8352 84.6922C68.6408 84.3453 72.1954 82.6949 74.8134 79.8892C76.7533 77.3671 77.447 75.5354 77.2306 72.2868C76.3615 69.3702 74.9846 67.6855 72.4632 66.0841C66.4021 62.9089 66.4021 62.9089 60.6041 64.265ZM74.5787 82.5451C74.2733 82.7666 73.9679 82.988 73.6532 83.2161C73.4178 83.3883 73.1824 83.5605 72.9399 83.738C73.2338 85.532 73.7658 87.0081 74.5191 88.6584C77.713 96.2855 78.3608 104.204 79.1376 112.366C80.376 110.507 81.1881 108.503 82.08 106.458C82.9516 105.209 82.9516 105.209 84.3539 104.691C86.149 104.741 86.5823 105.128 87.8084 106.402C88.707 107.364 88.707 107.364 89.626 108.072C90.098 107.914 90.57 107.757 91.0563 107.595C92.2769 105.011 92.7246 102.049 92.8795 99.2149C92.9633 98.0519 92.9633 98.0519 93.2407 96.9486C93.4902 95.6044 93.5353 95.0163 92.9633 93.7577C91.0086 92.0435 87.4837 89.4636 84.8586 89.4636C84.8586 89.1487 84.8586 88.8337 84.8586 88.5093C84.0244 87.7757 84.0244 87.7757 82.9516 87.0183C80.9506 85.5132 79.2121 83.8784 77.4839 82.0699C76.2448 80.8519 75.8609 81.6119 74.5787 82.5451ZM60.5445 86.1236C60.44 86.4072 60.3356 86.6907 60.2279 86.9828C57.6151 93.8177 54.1044 99.4228 48.0597 103.688C46.4839 104.848 46.4839 104.848 45.8548 106.7C46.8891 111.674 46.8891 111.674 49.1026 116.183C49.4173 116.183 49.7319 116.183 50.0561 116.183C50.6854 114.608 51.3147 113.034 51.9631 111.412C53.8701 111.412 53.8701 111.412 55.0321 112.515C55.4353 112.938 55.8384 113.361 56.2538 113.797C57.4435 114.704 57.4435 114.704 58.6375 115.229C59.3455 114.993 59.3455 114.993 60.0678 114.752C60.0924 114.35 60.0924 114.35 60.1175 113.939C60.7025 104.989 62.3314 96.8002 65.7887 88.5093C65.9461 88.0369 66.1034 87.5646 66.2655 87.0779C64.2825 86.4553 62.6182 86.0663 60.5445 86.1236Z" fill="#FFCAB7"/>
<path d="M86.3797 0C86.5719 0 86.7641 0 86.9621 0C86.9679 0.175022 86.9679 0.175022 86.9738 0.353581C87.0712 3.48296 87.0712 3.48296 87.5445 6.57249C87.9737 6.14512 88.1216 5.73417 88.3499 5.18308C88.7085 4.42318 89.1805 3.94002 89.8742 3.47955C91.0331 3.22954 91.7378 3.22371 92.7863 3.86617C93.5751 4.83284 93.6602 5.61316 93.6159 6.84282C93.5532 7.43735 93.4129 7.95692 93.1746 8.50557C93.2822 8.44327 93.3898 8.38098 93.5007 8.31679C94.6408 7.81605 95.971 8.01835 97.1059 8.44516C97.4166 8.5872 97.7244 8.73579 98.0281 8.89219C98.1452 8.951 98.2623 9.0098 98.383 9.07039C99.698 9.86582 100.965 11.4435 101.523 12.8678C101.676 13.78 101.474 14.5182 101.01 15.3121C100.203 16.37 99.1302 16.8317 97.834 17.0111C95.9831 17.1622 94.2929 16.5223 92.5922 15.8513C92.6342 16.0931 92.6342 16.0931 92.6771 16.3398C93.0738 18.7347 93.3798 21.3431 91.8945 23.4454C90.8985 24.6547 89.7564 25.189 88.227 25.3853C86.858 25.4488 85.7392 25.1277 84.6665 24.2655C83.8244 23.4067 83.489 22.4587 83.4676 21.2639C83.6605 20.1393 84.1121 19.1808 84.6324 18.171C84.4262 18.1426 84.22 18.1142 84.0075 18.0849C82.0212 17.7828 80.6968 17.3942 79.4149 15.7667C78.7031 14.6785 78.4358 13.4661 78.6141 12.1784C79.0211 10.4965 79.6958 9.42732 81.1167 8.44516C82.5056 7.68503 84.0694 7.85819 85.6031 7.92565C85.6031 7.51347 85.0622 7.13205 84.8023 6.86245C83.4857 5.56087 81.9632 4.54698 80.29 3.74686C79.7789 3.47955 79.7789 3.47955 79.609 3.05669C79.601 2.94107 79.593 2.82544 79.5848 2.70632C79.8949 2.5704 79.8949 2.5704 80.3613 2.51301C82.1357 3.25933 83.6236 4.43664 85.0518 5.69958C85.5474 6.13673 86.0532 6.55202 86.5738 6.9591C86.5138 6.7757 86.4537 6.5923 86.3918 6.40334C85.8351 4.4455 85.7941 2.18557 86.1855 0.193308C86.2496 0.129517 86.3137 0.0657249 86.3797 0ZM89.8742 4.6394C88.9659 5.65051 88.6814 6.47794 88.6851 7.82899C88.6846 8.0104 88.6841 8.19181 88.6836 8.37871C88.7067 8.83834 88.7724 9.226 88.9035 9.66542C89.0356 9.59764 89.1678 9.52986 89.3039 9.46003C90.0118 9.23508 90.5119 9.3313 91.2332 9.47211C91.3613 9.91866 91.4894 10.3652 91.6215 10.8253C91.7821 10.7778 91.7821 10.7778 91.946 10.7294C92.4497 10.6208 92.9025 10.6131 93.4173 10.6199C93.5904 10.6216 93.7636 10.6234 93.942 10.6252C94.0732 10.6274 94.2043 10.6297 94.3394 10.632C94.2219 11.8727 94.2219 11.8727 93.9147 12.3234C93.1461 12.8512 92.296 13.2009 91.4273 13.5316C91.5448 14.0534 91.6668 14.4007 92.1263 14.7016C92.5272 14.8919 92.9314 15.0607 93.3445 15.223C93.4844 15.2816 93.6242 15.3402 93.7684 15.4005C95.3461 16.0514 97.0057 16.3821 98.6985 15.9125C99.6092 15.4954 100.219 14.9587 100.746 14.1115C100.633 12.448 99.4978 11.2202 98.2829 10.1608C97.1728 9.3301 95.9076 8.83051 94.4994 8.91862C93.7289 9.09769 93.3117 9.49284 92.7863 10.052C92.376 10.1721 92.376 10.1721 92.0097 10.2453C92.0697 9.89888 92.1305 9.55256 92.1917 9.20631C92.2255 9.01344 92.2593 8.82057 92.2941 8.62186C92.398 8.11895 92.398 8.11895 92.5922 7.73234C92.6868 6.68634 92.7653 5.73826 92.2646 4.79647C91.4424 4.15481 90.7739 4.10187 89.8742 4.6394ZM80.4948 10.0037C79.5606 11.2439 79.3928 12.6046 79.5848 14.1115C79.8465 15.0784 80.2749 15.6634 81.1136 16.2137C82.4625 16.9445 83.5085 17.1259 85.0207 16.8178C85.1573 16.7496 85.294 16.6813 85.4348 16.6109C85.9331 16.3639 86.2452 16.4799 86.768 16.6245C86.768 15.9866 86.768 15.3487 86.768 14.6914C86.5637 14.6755 86.3595 14.6595 86.1491 14.6431C85.3392 14.4845 84.9855 14.3358 84.4383 13.7249C84.302 13.0162 84.3764 12.6803 84.7173 12.0455C85.5889 11.2624 86.5803 11.0186 87.7387 11.0186C87.6634 10.555 87.6052 10.3042 87.2624 9.972C87.1473 9.89475 87.0322 9.8175 86.9136 9.73791C86.8004 9.65967 86.6873 9.58142 86.5708 9.50081C84.5492 8.33587 82.2973 8.64554 80.4948 10.0037ZM90.2625 10.4387C90.3265 10.6938 90.3906 10.949 90.4566 11.2119C90.5207 10.9567 90.5848 10.7016 90.6508 10.4387C90.5226 10.4387 90.3945 10.4387 90.2625 10.4387ZM89.8742 13.7249C89.905 13.8605 89.9358 13.996 89.9675 14.1357C90.1812 15.3133 90.3129 16.5512 89.7407 17.6273C89.2299 18.026 88.9711 18.171 88.3211 18.171C87.6629 17.8967 87.4107 17.7141 87.0956 17.0716C87.0515 16.924 87.0075 16.7765 86.9621 16.6245C85.7398 17.6626 84.9451 19.1771 84.4383 20.684C84.3575 21.726 84.502 22.5753 85.1784 23.3903C85.7731 24.0235 86.281 24.3241 87.154 24.4218C88.501 24.4376 89.3967 24.4452 90.4566 23.5836C91.9512 21.9882 92.1191 20.3077 92.0712 18.2171C91.9853 16.6067 91.3115 14.9648 90.2625 13.7249C90.1343 13.7249 90.0062 13.7249 89.8742 13.7249ZM89.0976 15.8513C89.2918 16.2379 89.2918 16.2379 89.2918 16.2379L89.0976 15.8513Z" fill="#FFCAB7"/>
<path d="M83.6374 8.08281C83.8657 8.08673 83.8657 8.08673 84.0985 8.09074C84.4707 8.09752 84.8428 8.10792 85.2148 8.11905C85.2148 8.18285 85.2148 8.24664 85.2148 8.31236C85.0146 8.31635 84.8144 8.32034 84.6081 8.32444C83.7422 8.42816 83.0135 8.77284 82.2421 9.15809C82.1235 9.21691 82.005 9.27573 81.8829 9.33634C80.7936 9.89848 80.2984 10.3526 79.8911 11.5261C79.5783 12.8058 79.5838 14.1657 80.2605 15.3251C81.1406 16.3186 82.5257 16.7567 83.8232 16.8481C84.5398 16.7967 85.1351 16.5062 85.7973 16.238C86.2181 16.2924 86.2181 16.2924 86.5738 16.4313C86.6379 16.5589 86.7019 16.6865 86.768 16.8179C86.6099 17.0422 86.6099 17.0422 86.4487 17.271C84.8786 19.513 84.8786 19.513 84.7014 22.1656C84.9329 23.0011 85.4035 23.5266 86.1415 23.996C87.1605 24.3912 88.4891 24.3409 89.5307 24.0375C90.6269 23.4761 91.2471 22.5451 91.6457 21.4218C91.8374 20.5896 91.8661 19.8418 91.852 18.9927C91.8519 18.8469 91.8518 18.7011 91.8516 18.5509C91.8466 17.925 91.8215 17.4154 91.6215 16.8179C91.6138 16.3669 91.6129 15.9157 91.6215 15.4648C91.9098 15.5605 91.9098 15.5605 92.2039 15.6581C92.2039 15.8495 92.2039 16.0408 92.2039 16.238C92.332 16.238 92.4601 16.238 92.5922 16.238C93.0657 18.4901 93.3816 20.9915 92.1553 23.0763C91.264 24.3379 90.2104 25.0101 88.7094 25.3235C87.335 25.4999 86.193 25.3024 85.0207 24.5503C84.0815 23.7953 83.6574 22.9528 83.4767 21.7707C83.453 20.4506 84.0402 19.3205 84.6324 18.1711C84.4262 18.1427 84.22 18.1143 84.0075 18.085C82.0212 17.7829 80.6968 17.3943 79.4149 15.7668C78.7031 14.6786 78.4358 13.4662 78.6141 12.1785C79.0326 10.4492 79.7546 9.32034 81.2683 8.37504C82.0892 8.04982 82.7649 8.0541 83.6374 8.08281Z" fill="#FFCAB7"/>
<path d="M92.2044 3.4796C92.9795 4.11421 93.5108 4.7095 93.6149 5.71926C93.6093 6.72226 93.5821 7.56834 93.1751 8.50562C93.2827 8.44332 93.3903 8.38103 93.5012 8.31684C94.6414 7.81609 95.9715 8.0184 97.1064 8.44521C97.4171 8.58725 97.7249 8.73584 98.0286 8.89224C98.1457 8.95104 98.2628 9.00985 98.3835 9.07044C99.6985 9.86587 100.966 11.4436 101.523 12.8679C101.676 13.7801 101.474 14.5183 101.01 15.3122C100.203 16.37 99.1308 16.8318 97.8345 17.0112C95.9803 17.1625 93.9981 16.6031 92.3985 15.658C91.901 15.1264 91.901 15.1264 91.622 14.6915C92.6643 14.8626 93.617 15.0852 94.5947 15.4889C95.925 15.9879 97.3232 16.1172 98.7005 15.7101C99.5075 15.3442 100.119 14.8998 100.552 14.1116C100.426 12.5028 99.382 11.281 98.1863 10.2575C97.1159 9.48862 95.8322 9.03035 94.4992 9.11122C93.7266 9.29281 93.3218 9.69437 92.7868 10.2454C92.5305 10.2454 92.2743 10.2454 92.0103 10.2454C91.9616 8.81613 91.9616 8.81613 92.2021 8.2368C92.4305 7.65035 92.4568 7.18792 92.4592 6.56045C92.4625 6.36285 92.4657 6.16524 92.4691 5.96165C92.3895 5.3427 92.2481 5.08398 91.8161 4.63945C91.2562 4.43407 90.9301 4.42763 90.3479 4.55488C89.5971 4.9958 89.2126 5.63182 88.9525 6.45172C88.9365 6.55538 88.9205 6.65904 88.904 6.76584C88.7759 6.76584 88.6477 6.76584 88.5157 6.76584C88.5157 7.46755 88.5157 8.16926 88.5157 8.89224C88.4517 8.89224 88.3876 8.89224 88.3216 8.89224C88.2575 8.57328 88.1935 8.25432 88.1274 7.92569C88.0634 7.92569 87.9993 7.92569 87.9333 7.92569C87.8449 6.48713 88.0435 5.49399 88.904 4.28908C89.8655 3.24195 90.8593 3.14478 92.2044 3.4796Z" fill="#FFCAB7"/>
<path d="M90.5657 9.13384C91.2331 9.27882 91.2331 9.27882 91.6213 9.66544C91.7427 10.1729 91.7427 10.1729 91.8155 10.632C92.0077 10.5682 92.1999 10.5044 92.3979 10.4387C93.7606 10.2964 93.7606 10.2964 94.3393 10.7286C94.5335 11.0186 94.5335 11.0186 94.4485 11.6348C94.3054 12.1488 94.1907 12.3375 93.7577 12.6632C93.3109 12.9072 92.8615 13.128 92.3979 13.3383C92.1387 13.4665 91.8797 13.5951 91.6213 13.7249C91.6854 13.9801 91.7495 14.2353 91.8155 14.4982C92.1358 14.5619 92.4562 14.6257 92.7862 14.6915C92.5299 14.7553 92.2737 14.819 92.0096 14.8848C92.1378 15.0124 92.2659 15.1399 92.3979 15.2714C92.4222 15.7788 92.4222 15.7788 92.3979 16.2379C92.3338 16.0466 92.2698 15.8552 92.2038 15.658C92.0756 15.658 91.9475 15.658 91.8155 15.658C91.6874 15.7856 91.5592 15.9132 91.4272 16.0446C91.3078 15.8177 91.3078 15.8177 91.1861 15.5863C91.0814 15.3907 90.9768 15.195 90.8691 14.9935C90.7654 14.7984 90.6618 14.6033 90.5551 14.4023C90.3096 13.8986 90.3096 13.8986 89.8741 13.7249C89.9364 13.8607 89.9987 13.9965 90.0629 14.1365C90.4266 15.1485 90.5351 16.4142 90.0788 17.4129C89.7174 17.8792 89.3479 18.1472 88.8063 18.3764C88.167 18.3605 87.8562 18.1656 87.3503 17.7844C86.8301 17.0075 86.9317 16.5778 86.962 15.658C87.6083 16.087 87.6901 16.305 87.9327 17.0112C87.9307 16.8864 87.9286 16.7616 87.9265 16.633C87.9184 16.0664 87.9134 15.4998 87.9084 14.9331C87.9052 14.7367 87.9019 14.5404 87.8986 14.3381C87.8973 14.1487 87.8961 13.9593 87.8948 13.7642C87.8927 13.5901 87.8907 13.4159 87.8886 13.2365C87.9327 12.7584 87.9327 12.7584 88.321 11.9851C88.321 12.7506 88.321 13.5161 88.321 14.3048C88.4491 14.3048 88.5772 14.3048 88.7092 14.3048C88.707 14.1558 88.7047 14.0068 88.7024 13.8533C88.6998 13.5625 88.6998 13.5625 88.6971 13.2658C88.6949 13.0729 88.6926 12.8801 88.6903 12.6814C88.7092 12.1784 88.7092 12.1784 88.9034 11.7918C89.0956 11.8556 89.2878 11.9194 89.4858 11.9851C89.4858 12.3041 89.4858 12.6231 89.4858 12.9517C89.9343 13.0155 90.3827 13.0793 90.8448 13.145C90.8448 13.0174 90.8448 12.8898 90.8448 12.7584C91.2292 12.8222 91.6136 12.886 92.0096 12.9517C92.0096 12.8241 92.0096 12.6965 92.0096 12.5651C92.0096 12.5013 92.0096 12.4375 92.0096 12.3718C91.6211 12.3552 91.6211 12.3552 91.2573 12.4684C90.8448 12.5651 90.8448 12.5651 90.0682 12.5651C89.9401 11.9271 89.812 11.2892 89.6799 10.632C89.8081 10.632 89.9362 10.632 90.0682 10.632C90.1964 11.0147 90.3245 11.3975 90.4565 11.7918C90.5846 11.2815 90.7128 10.7712 90.8448 10.2454C89.9799 10.3411 89.9799 10.3411 89.0975 10.4387C89.1582 9.97957 89.1582 9.97957 89.2917 9.47213C89.8741 9.08551 89.8741 9.08551 90.5657 9.13384ZM89.0975 15.8513C89.2917 16.2379 89.2917 16.2379 89.2917 16.2379L89.0975 15.8513Z" fill="#FFCAB7"/>
<path d="M88.7101 9.27888C88.7742 9.40647 88.8383 9.53405 88.9043 9.6655C89.0324 9.72929 89.1605 9.79309 89.2926 9.85881C89.2926 9.98639 89.2926 10.114 89.2926 10.2454C89.4767 10.2095 89.6609 10.1737 89.8507 10.1367C90.4574 10.0521 90.4574 10.0521 90.8457 10.2454C90.7319 11.4347 90.7319 11.4347 90.6515 11.7919C90.5234 11.8557 90.3953 11.9195 90.2633 11.9852C90.1992 11.5387 90.1351 11.0921 90.0691 10.632C89.941 10.632 89.8128 10.632 89.6808 10.632C89.873 11.27 90.0652 11.9079 90.2633 12.5651C91.1328 12.4787 91.1328 12.4787 91.8164 11.9852C92.326 12.0577 92.326 12.0577 92.7871 12.1785C92.4027 12.3699 92.4027 12.3699 92.0105 12.5651C92.0105 12.6927 92.0105 12.8203 92.0105 12.9517C91.6261 12.888 91.2417 12.8242 90.8457 12.7584C90.8457 12.886 90.8457 13.0136 90.8457 13.1451C90.3331 13.1451 89.8206 13.1451 89.2926 13.1451C89.2926 12.7623 89.2926 12.3796 89.2926 11.9852C89.1644 11.9214 89.0363 11.8576 88.9043 11.7919C88.8402 12.6212 88.7761 13.4505 88.7101 14.3049C88.582 14.3049 88.4539 14.3049 88.3219 14.3049C88.2578 13.9222 88.1937 13.5394 88.1277 13.1451C88.1277 14.4847 88.1277 15.8243 88.1277 17.2045C87.8714 17.0132 87.6152 16.8218 87.3511 16.6246C87.159 16.6246 86.9668 16.6246 86.7687 16.6246C86.7687 15.9867 86.7687 15.3488 86.7687 14.6915C86.5685 14.7115 86.3683 14.7314 86.162 14.7519C85.1611 14.6716 84.9075 14.4652 84.2449 13.725C84.0589 12.9337 84.1978 12.6423 84.6211 11.949C85.2497 11.2693 86.0571 10.969 86.9629 10.8254C87.405 10.9092 87.405 10.9092 87.7394 11.0187C87.8035 10.8273 87.8676 10.6359 87.9336 10.4387C87.9976 10.5663 88.0617 10.6939 88.1277 10.8254C88.1918 10.6978 88.2558 10.5702 88.3219 10.4387C88.5141 10.4387 88.7062 10.4387 88.9043 10.4387C88.8402 10.056 88.7761 9.67323 88.7101 9.27888ZM90.2633 10.4387C90.3273 10.6939 90.3914 10.9491 90.4574 11.212C90.5215 10.9568 90.5855 10.7016 90.6515 10.4387C90.5234 10.4387 90.3953 10.4387 90.2633 10.4387Z" fill="#FFCAB7"/>
<path d="M98.6101 10.2454C99.0447 10.1948 99.0447 10.1948 99.5808 10.2454C100.002 10.592 100.002 10.592 100.394 11.0549C100.525 11.2051 100.656 11.3554 100.79 11.5102C101.469 12.449 101.598 13.1434 101.43 14.2649C101.228 15.1099 100.864 15.637 100.146 16.13C98.5358 17.0663 97.0277 17.2315 95.2248 16.7696C92.4223 15.9402 92.4223 15.9402 91.6211 14.6915C92.6634 14.8626 93.6162 15.0852 94.5939 15.4889C95.9241 15.988 97.3224 16.1172 98.6996 15.7101C99.5066 15.3442 100.118 14.8998 100.552 14.1116C100.505 13.0913 100.067 12.4305 99.4716 11.6348C98.6101 10.4542 98.6101 10.4542 98.6101 10.2454Z" fill="#FFCAB7"/>
<path d="M88.7102 9.27888C88.7742 9.40647 88.8383 9.53405 88.9043 9.6655C89.0324 9.72929 89.1606 9.79309 89.2926 9.85881C89.2926 9.98639 89.2926 10.114 89.2926 10.2454C89.4768 10.2095 89.661 10.1737 89.8507 10.1367C90.4574 10.0521 90.4574 10.0521 90.8457 10.2454C90.7319 11.4347 90.7319 11.4347 90.6516 11.7919C90.4594 11.8876 90.4594 11.8876 90.2633 11.9852C90.1992 11.5387 90.1351 11.0921 90.0691 10.632C89.941 10.632 89.8129 10.632 89.6809 10.632C89.8731 11.27 90.0652 11.9079 90.2633 12.5651C91.1328 12.4787 91.1328 12.4787 91.8164 11.9852C92.326 12.0577 92.326 12.0577 92.7871 12.1785C92.4027 12.3699 92.4027 12.3699 92.0105 12.5651C92.0105 12.6927 92.0105 12.8203 92.0105 12.9517C91.6261 12.888 91.2417 12.8242 90.8457 12.7584C90.8457 12.886 90.8457 13.0136 90.8457 13.1451C90.3332 13.1451 89.8206 13.1451 89.2926 13.1451C89.2926 12.7623 89.2926 12.3796 89.2926 11.9852C89.1644 11.9214 89.0363 11.8576 88.9043 11.7919C88.8402 12.6212 88.7762 13.4505 88.7102 14.3049C88.582 14.3049 88.4539 14.3049 88.3219 14.3049C88.2578 13.7946 88.1937 13.2842 88.1277 12.7584C88.0637 13.0774 87.9996 13.3964 87.9336 13.725C87.7414 13.6612 87.5492 13.5974 87.3512 13.5317C87.4152 13.3243 87.4793 13.117 87.5453 12.9034C87.7728 12.179 87.7728 12.179 87.7394 11.4053C87.1629 11.3415 86.5863 11.2777 85.9922 11.212C86.5746 10.8254 86.5746 10.8254 87.1934 10.8978C87.3736 10.9377 87.5538 10.9776 87.7394 11.0187C87.8035 10.8273 87.8676 10.6359 87.9336 10.4387C87.9977 10.5663 88.0617 10.6939 88.1277 10.8254C88.1918 10.6978 88.2559 10.5702 88.3219 10.4387C88.5141 10.4387 88.7063 10.4387 88.9043 10.4387C88.8402 10.056 88.7762 9.67323 88.7102 9.27888ZM90.2633 10.4387C90.3273 10.6939 90.3914 10.9491 90.4574 11.212C90.5215 10.9568 90.5855 10.7016 90.6516 10.4387C90.5234 10.4387 90.3953 10.4387 90.2633 10.4387Z" fill="#FFCAB7"/>
<path d="M89.4858 13.9182C89.5499 14.0458 89.6139 14.1734 89.6799 14.3049C89.8081 14.3049 89.9362 14.3049 90.0682 14.3049C90.4765 15.1179 90.3653 16.1281 90.2624 17.0112C89.9484 17.7052 89.5163 18.076 88.8063 18.3764C88.167 18.3605 87.8562 18.1656 87.3503 17.7844C86.8301 17.0075 86.9317 16.5779 86.962 15.658C87.5444 16.0446 87.5444 16.0446 87.8113 16.6366C88.0678 17.2507 88.0678 17.2507 88.6486 17.3736C88.7967 17.3816 88.9449 17.3896 89.0975 17.3978C89.3142 16.6798 89.3523 15.9689 89.4009 15.2231C89.4171 14.9789 89.4334 14.7347 89.4502 14.4831C89.4619 14.2967 89.4737 14.1103 89.4858 13.9182Z" fill="#FFCAB7"/>
<path d="M80.5547 15.8513C80.7469 15.9291 80.7469 15.9291 80.943 16.0084C81.1352 16.0841 81.3274 16.1599 81.5254 16.2379C81.6383 16.2913 81.7511 16.3446 81.8674 16.3995C82.945 16.874 83.873 16.8829 85.0199 16.6246C85.2226 16.518 85.2226 16.518 85.4294 16.4093C85.7965 16.2379 85.7965 16.2379 86.3789 16.4312C86.1867 16.5588 85.9945 16.6864 85.7965 16.8179C85.8605 16.9454 85.9246 17.073 85.9906 17.2045C85.7343 17.5234 85.4781 17.8424 85.2141 18.171C85.15 18.1072 85.0859 18.0434 85.0199 17.9777C84.7611 17.9737 84.502 17.9795 84.2434 17.9898C83.2937 18.0035 82.44 17.8322 81.5254 17.5911C81.5895 17.4635 81.6535 17.3359 81.7195 17.2045C81.3044 16.7911 81.1113 16.7354 80.5547 16.6246C80.5547 16.3694 80.5547 16.1142 80.5547 15.8513Z" fill="#FFCAB7"/>
<path d="M86.7912 11.1999C87.004 11.2016 87.2167 11.2033 87.4358 11.2051C87.5995 11.2074 87.7632 11.2096 87.9318 11.2119C87.8677 11.4033 87.8037 11.5947 87.7377 11.7919C87.6095 11.7919 87.4814 11.7919 87.3494 11.7919C87.2973 11.9115 87.2453 12.0311 87.1916 12.1543C86.9611 12.5651 86.9611 12.5651 86.3787 12.9517C86.4427 12.6327 86.5068 12.3138 86.5728 11.9852C86.1884 12.049 85.804 12.1127 85.408 12.1785C85.2625 12.8866 85.1676 13.4202 85.408 14.1116C85.5922 14.0757 85.7764 14.0398 85.9661 14.0028C86.5728 13.9183 86.5728 13.9183 86.9611 14.1116C86.9611 14.2391 86.9611 14.3667 86.9611 14.4982C86.0819 14.5325 85.4209 14.5159 84.6314 14.1116C84.2431 13.7249 84.2431 13.7249 84.1582 13.1933C84.2757 12.3239 84.6025 12.0284 85.2138 11.4052C85.7505 11.138 86.1935 11.1935 86.7912 11.1999Z" fill="#FFCAB7"/>
<path d="M94.3402 10.632C94.5299 11.2308 94.5451 11.3761 94.316 11.9972C93.8958 12.6526 93.7121 12.8721 92.9812 13.145C92.2665 13.1902 91.5607 13.1787 90.8457 13.145C90.8457 13.0174 90.8457 12.8898 90.8457 12.7584C91.4223 12.8541 91.4223 12.8541 92.0105 12.9517C92.0105 12.8241 92.0105 12.6965 92.0105 12.5651C92.1387 12.5013 92.2668 12.4375 92.3988 12.3718C92.1903 11.8082 92.0536 11.4481 91.6223 11.0186C92.5247 10.5548 93.3522 10.5934 94.3402 10.632Z" fill="#FFCAB7"/>
<path d="M89.4867 12.9517C89.9789 12.9693 90.4643 12.9975 90.9549 13.0363C91.1619 13.0514 91.1619 13.0514 91.3731 13.0668C91.7151 13.092 92.057 13.1184 92.3988 13.145C92.1426 13.3364 91.8863 13.5277 91.6223 13.7249C91.6863 13.9801 91.7504 14.2353 91.8164 14.4982C92.2969 14.5938 92.2969 14.5938 92.7871 14.6915C92.5308 14.7553 92.2746 14.819 92.0105 14.8848C92.1387 15.0124 92.2668 15.1399 92.3988 15.2714C92.4231 15.7788 92.4231 15.7788 92.3988 16.2379C92.3348 16.0466 92.2707 15.8552 92.2047 15.658C92.0765 15.658 91.9484 15.658 91.8164 15.658C91.6883 15.7856 91.5601 15.9132 91.4281 16.0446C91.3485 15.8934 91.269 15.7421 91.187 15.5863C91.03 15.2929 91.03 15.2929 90.87 14.9935C90.7664 14.7984 90.6628 14.6033 90.556 14.4023C90.3105 13.8986 90.3105 13.8986 89.875 13.7249C89.8109 13.9163 89.7469 14.1077 89.6809 14.3048C89.2804 14.5344 89.2804 14.5344 88.9043 14.6915C88.9043 14.5639 88.9043 14.4363 88.9043 14.3048C89.0324 14.3048 89.1606 14.3048 89.2926 14.3048C89.2886 14.1175 89.2846 13.9301 89.2804 13.737C89.2926 13.145 89.2926 13.145 89.4867 12.9517Z" fill="#FFCAB7"/>
<path d="M87.1555 11.7918C86.9633 11.9194 86.7711 12.047 86.573 12.1784C86.573 12.3698 86.573 12.5612 86.573 12.7584C86.8293 12.4394 87.0856 12.1204 87.3496 11.7918C87.4777 11.8556 87.6059 11.9194 87.7379 11.9851C87.6936 12.104 87.6493 12.2228 87.6037 12.3453C87.5479 12.5015 87.492 12.6578 87.4345 12.8188C87.3782 12.9735 87.3219 13.1283 87.2639 13.2877C87.1071 13.7526 87.1071 13.7526 87.3496 14.3048C86.7089 14.241 86.0683 14.1772 85.4082 14.1115C84.9842 13.0796 84.9842 13.0796 85.1413 12.5167C85.7011 11.8073 86.2824 11.7435 87.1555 11.7918Z" fill="#FFCAB7"/>
<path d="M87.7395 10.4388C87.8676 10.5664 87.9957 10.6939 88.1277 10.8254C88.1918 10.6978 88.2559 10.5702 88.3219 10.4388C88.5781 10.5026 88.8344 10.5664 89.0984 10.6321C88.9062 10.7278 88.9062 10.7278 88.7102 10.8254C88.7462 11.0048 88.7822 11.1842 88.8194 11.3691C88.9659 12.3541 88.8262 13.3223 88.7102 14.305C88.582 14.305 88.4539 14.305 88.3219 14.305C88.2578 13.7946 88.1937 13.2843 88.1277 12.7585C88.0637 13.0774 87.9996 13.3964 87.9336 13.725C87.7414 13.6612 87.5492 13.5974 87.3512 13.5317C87.4152 13.3244 87.4793 13.1171 87.5453 12.9035C87.7728 12.1791 87.7728 12.1791 87.7395 11.4053C87.1629 11.3415 86.5863 11.2777 85.9922 11.212C86.5746 10.8254 86.5746 10.8254 87.1934 10.8979C87.3736 10.9378 87.5538 10.9776 87.7395 11.0187C87.7395 10.8273 87.7395 10.636 87.7395 10.4388Z" fill="#FFCAB7"/>
<path d="M91.2332 9.27873C91.4912 10.9913 91.4912 10.9913 91.2332 11.5984C91.1051 11.726 90.9769 11.8536 90.8449 11.9851C90.6665 11.2745 90.6587 10.9868 90.8449 10.2453C89.98 10.341 89.98 10.341 89.0977 10.4386C89.1583 9.97948 89.1583 9.97948 89.2918 9.47204C90.0393 8.97584 90.3762 9.11773 91.2332 9.27873Z" fill="#FFCAB7"/>
<path d="M85.7973 16.238C85.9895 16.3018 86.1817 16.3656 86.3797 16.4313C86.1875 16.5589 85.9953 16.6865 85.7973 16.8179C85.8613 16.9455 85.9254 17.0731 85.9914 17.2045C85.7351 17.5235 85.4789 17.8425 85.2148 18.1711C84.6785 18.0701 84.1808 17.9568 83.6617 17.7845C83.6617 17.6569 83.6617 17.5293 83.6617 17.3979C83.5336 17.2703 83.4055 17.1427 83.2734 17.0112C83.4231 16.9716 83.5727 16.932 83.7269 16.8912C83.9216 16.8391 84.1163 16.787 84.3169 16.7334C84.5106 16.6818 84.7043 16.6302 84.9039 16.5771C85.4001 16.4503 85.4001 16.4503 85.7973 16.238Z" fill="#FFCAB7"/>
<path d="M92.3988 7.73232C92.5269 7.98748 92.6551 8.24265 92.7871 8.50555C92.9152 8.37797 93.0434 8.25038 93.1754 8.11893C93.2314 8.23854 93.2875 8.35815 93.3452 8.48139C93.5515 8.91793 93.5515 8.91793 93.9519 9.27878C92.8842 10.2453 92.8842 10.2453 92.0105 10.2453C91.9781 9.294 91.9623 8.60154 92.3988 7.73232Z" fill="#FFCAB7"/>
<path d="M92.398 17.3977C92.4621 17.3977 92.5262 17.3977 92.5922 17.3977C92.7811 18.3367 92.8097 19.2245 92.7985 20.1765C92.7976 20.3188 92.7967 20.4611 92.7958 20.6077C92.7935 20.9553 92.7901 21.3029 92.7863 21.6505C92.5301 21.5229 92.2738 21.3953 92.0098 21.2639C92.0372 20.7644 92.0656 20.2651 92.0947 19.7657C92.1023 19.6247 92.11 19.4837 92.1178 19.3383C92.1576 18.6683 92.2204 18.0446 92.398 17.3977Z" fill="#FFCAB7"/>
<path d="M88.516 6.76578C88.5801 6.76578 88.6441 6.76578 88.7102 6.76578C88.7742 7.97782 88.8383 9.18986 88.9043 10.4386C88.7121 10.4386 88.5199 10.4386 88.3219 10.4386C88.2578 10.63 88.1937 10.8214 88.1277 11.0186C88.0637 10.8272 87.9996 10.6358 87.9336 10.4386C87.7414 10.3748 87.5492 10.3111 87.3512 10.2453C87.1206 9.84663 87.1206 9.84663 86.9629 9.4721C87.1431 9.52592 87.1431 9.52592 87.3269 9.58083C87.7475 9.71119 87.7475 9.71119 88.1277 9.4721C88.3224 8.89067 88.3807 8.40151 88.4311 7.79273C88.4473 7.60061 88.4636 7.40848 88.4804 7.21054C88.4921 7.06377 88.5039 6.917 88.516 6.76578Z" fill="#FFCAB7"/>
<path d="M89.4863 13.9182C89.5504 14.0458 89.6145 14.1734 89.6805 14.3049C89.8086 14.3049 89.9367 14.3049 90.0687 14.3049C90.3333 14.8317 90.2957 15.2638 90.2993 15.8513C90.302 16.0587 90.3048 16.266 90.3076 16.4796C90.2629 17.0112 90.2629 17.0112 89.8746 17.3978C89.8746 17.2702 89.8746 17.1426 89.8746 17.0112C89.7465 16.9474 89.6183 16.8836 89.4863 16.8179C89.4863 15.861 89.4863 14.9041 89.4863 13.9182Z" fill="#FFCAB7"/>
<path d="M89.0973 24.1637C89.4855 24.212 89.4855 24.212 89.8738 24.357C89.9379 24.5483 90.002 24.7397 90.068 24.9369C89.4448 25.1437 88.9635 25.169 88.3086 25.1785C87.9989 25.186 87.9989 25.186 87.6829 25.1936C87.509 25.1727 87.3351 25.1518 87.1559 25.1302C87.0277 24.9388 86.8996 24.7475 86.7676 24.5503C86.9195 24.5386 87.0714 24.5269 87.2279 24.5148C87.4244 24.4986 87.6208 24.4824 87.8232 24.4657C88.0192 24.45 88.2151 24.4343 88.417 24.4181C88.8908 24.4088 88.8908 24.4088 89.0973 24.1637Z" fill="#FFCAB7"/>
<path d="M85.021 18.7509C84.9321 19.4216 84.848 20.0411 84.6327 20.684C84.4405 20.684 84.2483 20.684 84.0503 20.684C83.9863 20.8754 83.9222 21.0668 83.8562 21.2639C83.7991 19.5601 83.7991 19.5601 84.2445 18.9442C84.6327 18.7509 84.6327 18.7509 85.021 18.7509Z" fill="#FFCAB7"/>
<path d="M91.6207 11.9852C92.0104 12.0406 92.3989 12.1047 92.7855 12.1785C92.4011 12.3698 92.4011 12.3698 92.009 12.5651C92.009 12.6927 92.009 12.8202 92.009 12.9517C91.4324 12.856 91.4324 12.856 90.8441 12.7584C90.8441 12.886 90.8441 13.0136 90.8441 13.145C90.3316 13.145 89.8191 13.145 89.291 13.145C89.3551 12.826 89.4191 12.5071 89.4852 12.1785C89.6613 12.2502 89.8375 12.322 90.019 12.3959C90.6238 12.6216 90.6238 12.6216 91.0989 12.408C91.4168 12.1992 91.4168 12.1992 91.6207 11.9852Z" fill="#FFCAB7"/>
<path d="M89.4852 15.2715C89.5492 15.2715 89.6133 15.2715 89.6793 15.2715C89.6753 15.5107 89.6713 15.7499 89.6672 15.9964C89.6638 16.4679 89.677 16.8103 89.8128 17.265C89.8734 17.5912 89.8734 17.5912 89.655 17.9174C89.2154 18.2238 88.8477 18.2934 88.3203 18.3644C88.3203 18.2368 88.3203 18.1092 88.3203 17.9778C88.4484 17.9778 88.5766 17.9778 88.7086 17.9778C88.7086 17.7864 88.7086 17.595 88.7086 17.3979C88.8367 17.3979 88.9649 17.3979 89.0969 17.3979C89.225 16.6962 89.3531 15.9944 89.4852 15.2715Z" fill="#FFCAB7"/>
<path d="M91.8156 20.684C92.216 21.131 92.216 21.131 92.5922 21.6505C92.5281 21.8419 92.4641 22.0333 92.398 22.2305C92.334 22.1667 92.2699 22.1029 92.2039 22.0372C92.0117 22.4199 91.8195 22.8027 91.6215 23.197C91.4293 23.1332 91.2371 23.0694 91.0391 23.0037C91.2979 22.2305 91.5568 21.4572 91.8156 20.684Z" fill="#FFCAB7"/>
<path d="M92.5918 10.6321C93.1684 10.6321 93.745 10.6321 94.3391 10.6321C94.5332 11.4054 94.5332 11.4054 94.3391 11.9853C94.0828 11.9853 93.8265 11.9853 93.5625 11.9853C93.5625 11.7939 93.5625 11.6025 93.5625 11.4054C93.2422 11.3416 92.9218 11.2778 92.5918 11.2121C92.5918 11.0207 92.5918 10.8293 92.5918 10.6321Z" fill="#FFCAB7"/>
<path d="M83.661 20.2975C84.0401 20.4289 84.0401 20.4289 84.4375 20.6841C84.5558 21.1448 84.5558 21.1448 84.5831 21.6748C84.5941 21.8508 84.6051 22.0267 84.6165 22.2079C84.6215 22.343 84.6265 22.4781 84.6317 22.6172C84.4395 22.5534 84.2473 22.4896 84.0492 22.4239C83.857 22.5196 83.857 22.5196 83.661 22.6172C83.5131 21.7828 83.4356 21.1202 83.661 20.2975Z" fill="#FFCAB7"/>
<path d="M87.1568 11.7917C86.9646 11.9193 86.7724 12.0469 86.5744 12.1784C86.3406 12.6717 86.3406 12.6717 86.1861 13.1449C86.1221 12.9535 86.058 12.7622 85.992 12.565C85.8639 12.5012 85.7357 12.4374 85.6037 12.3717C85.6037 12.8182 85.6037 13.2648 85.6037 13.7248C85.4756 13.7248 85.3475 13.7248 85.2154 13.7248C85.0478 13.2576 84.9993 13.0193 85.1548 12.5408C85.6794 11.7946 86.2841 11.7435 87.1568 11.7917Z" fill="#FFCAB7"/>
<path d="M91.6216 15.4646C91.8138 15.5284 92.006 15.5922 92.204 15.6579C92.443 16.8951 92.443 16.8951 92.2162 17.4823C92.1481 17.5819 92.08 17.6816 92.0099 17.7843C91.622 16.9878 91.587 16.3438 91.6216 15.4646Z" fill="#FFCAB7"/>
<path d="M98.6113 10.2454C98.9317 10.2454 99.252 10.2454 99.582 10.2454C99.8565 10.7556 100.043 11.2257 100.164 11.7919C99.9723 11.7919 99.7801 11.7919 99.582 11.7919C99.3128 11.4536 99.3128 11.4536 99.0603 11.0187C98.9754 10.8751 98.8906 10.7316 98.8032 10.5837C98.7399 10.4721 98.6766 10.3604 98.6113 10.2454Z" fill="#FFCAB7"/>
<path d="M92.2041 20.1042C92.3963 20.1042 92.5885 20.1042 92.7865 20.1042C92.7865 20.6145 92.7865 21.1248 92.7865 21.6506C92.5303 21.523 92.274 21.3955 92.01 21.264C92.0017 20.9419 92.0021 20.6195 92.01 20.2975C92.074 20.2337 92.1381 20.1699 92.2041 20.1042Z" fill="#FFCAB7"/>
<path d="M87.7383 14.3049C87.8024 14.3049 87.8664 14.3049 87.9325 14.3049C87.9965 15.2618 88.0606 16.2187 88.1266 17.2046C87.5442 16.6246 87.5442 16.6246 87.4805 16.2078C87.4855 16.0583 87.4905 15.9088 87.4956 15.7547C87.4986 15.6052 87.5016 15.4557 87.5047 15.3017C87.5442 14.8849 87.5442 14.8849 87.7383 14.3049Z" fill="#FFCAB7"/>
<path d="M78.8086 12.3717C79.0008 12.3717 79.193 12.3717 79.391 12.3717C79.4551 13.0734 79.5191 13.7751 79.5852 14.4981C79.3289 14.4981 79.0726 14.4981 78.8086 14.4981C78.8086 13.7963 78.8086 13.0946 78.8086 12.3717Z" fill="#FFCAB7"/>
<path d="M91.2344 9.47205C91.4266 9.56773 91.4266 9.56773 91.6227 9.66535C91.744 10.1607 91.744 10.1607 91.8168 10.6319C92.009 10.5681 92.2012 10.5043 92.3992 10.4386C92.6699 10.4257 92.9412 10.4221 93.2122 10.4265C93.5786 10.4325 93.5786 10.4325 93.9523 10.4386C93.9523 10.5024 93.9523 10.5662 93.9523 10.6319C93.7556 10.6704 93.7556 10.6704 93.555 10.7097C93.2952 10.7609 93.2952 10.7609 93.0302 10.8131C92.859 10.8468 92.6878 10.8804 92.5115 10.9151C92.0834 11.0035 91.6585 11.1063 91.2344 11.2118C91.2344 10.6377 91.2344 10.0636 91.2344 9.47205Z" fill="#FFCAB7"/>
<path d="M89.8738 10.0521C90.1991 10.1074 90.523 10.1715 90.8445 10.2454C90.7308 11.4347 90.7308 11.4347 90.6504 11.7919C90.4582 11.8875 90.4582 11.8875 90.2621 11.9852C90.0699 11.411 89.8777 10.8369 89.6797 10.2454C89.7438 10.1816 89.8078 10.1178 89.8738 10.0521ZM90.2621 10.4387C90.3262 10.6939 90.3902 10.949 90.4562 11.2119C90.5203 10.9568 90.5844 10.7016 90.6504 10.4387C90.5223 10.4387 90.3941 10.4387 90.2621 10.4387Z" fill="#FFCAB7"/>
<path d="M85.7973 16.8179C85.8613 16.9454 85.9254 17.073 85.9914 17.2045C85.7351 17.5234 85.4789 17.8424 85.2148 18.171C84.8945 18.1072 84.5742 18.0434 84.2441 17.9777C84.2441 17.8501 84.2441 17.7225 84.2441 17.5911C84.5004 17.5911 84.7567 17.5911 85.0207 17.5911C85.0207 17.4635 85.0207 17.3359 85.0207 17.2045C85.277 17.0769 85.5332 16.9493 85.7973 16.8179Z" fill="#FFCAB7"/>
<path d="M86.768 11.4052C85.8701 12.1784 85.8701 12.1784 85.2148 12.1784C85.2148 11.9233 85.2148 11.6681 85.2148 11.4052C85.7704 11.1286 86.1727 11.2892 86.768 11.4052Z" fill="#FFCAB7"/>
<path d="M86.9629 14.6914C87.1551 14.6914 87.3473 14.6914 87.5453 14.6914C87.5938 15.9721 87.5938 15.9721 87.157 16.6245C87.093 15.9866 87.0289 15.3487 86.9629 14.6914Z" fill="#FFCAB7"/>
<path d="M92.9805 15.4647C94.2666 15.4163 94.2666 15.4163 94.9219 15.8513C94.2107 15.9961 93.6748 16.0906 92.9805 15.8513C92.9805 15.7237 92.9805 15.5961 92.9805 15.4647Z" fill="#FFCAB7"/>
<path d="M82.4961 17.0112C83.0086 17.075 83.5212 17.1388 84.0492 17.2045C83.6609 17.5911 83.6609 17.5911 83.0542 17.6153C82.778 17.6033 82.778 17.6033 82.4961 17.5911C82.4961 17.3997 82.4961 17.2084 82.4961 17.0112Z" fill="#FFCAB7"/>
<path d="M95.1172 16.0447C95.5657 16.1085 96.0141 16.1722 96.4762 16.238C96.4762 16.3656 96.4762 16.4931 96.4762 16.6246C96.0277 16.6246 95.5792 16.6246 95.1172 16.6246C95.1172 16.4332 95.1172 16.2418 95.1172 16.0447Z" fill="#FFCAB7"/>
<path d="M92.472 10.7877C92.6477 10.7922 92.8233 10.7967 93.0043 10.8013C93.2694 10.8065 93.2694 10.8065 93.5397 10.8119C93.6754 10.8163 93.811 10.8208 93.9508 10.8254C93.9508 10.8892 93.9508 10.953 93.9508 11.0188C93.5023 11.0188 93.0538 11.0188 92.5918 11.0188C92.5918 11.1463 92.5918 11.2739 92.5918 11.4054C92.2715 11.3416 91.9511 11.2778 91.6211 11.2121C92.0094 10.8254 92.0094 10.8254 92.472 10.7877Z" fill="#FFCAB7"/>
<path d="M90.8445 10.4388C91.0367 10.6939 91.2289 10.9491 91.427 11.212C91.2988 11.4672 91.1707 11.7223 91.0387 11.9852C90.9105 11.9215 90.7824 11.8577 90.6504 11.7919C90.7145 11.3454 90.7785 10.8989 90.8445 10.4388Z" fill="#FFCAB7"/>
</svg>
