<svg width="25" height="24" viewBox="0 0 25 24" fill="none" xmlns="http://www.w3.org/2000/svg">
<path d="M13 2.01228C12.8344 2.00413 12.6677 2 12.5 2C6.97715 2 2.5 6.47715 2.5 12C2.5 17.5228 6.97715 22 12.5 22C18.0228 22 22.5 17.5228 22.5 12C22.5 11.1368 22.3906 10.299 22.185 9.5" stroke="#455F2C" stroke-width="1.5" stroke-linecap="round" stroke-linejoin="round"/>
<path d="M8.5 15C9.41212 16.2144 10.8643 17 12.5 17C14.1357 17 15.5879 16.2144 16.5 15" stroke="#8C9C72" stroke-width="1.5" stroke-linecap="round" stroke-linejoin="round"/>
<path d="M10.5 9.5H9.20711C8.75435 9.5 8.32014 9.67986 8 10M14.5 9.5H15.7929C16.2456 9.5 16.6799 9.67986 17 10" stroke="#8C9C72" stroke-width="1.5" stroke-linecap="round" stroke-linejoin="round"/>
<path d="M16.3881 2.3312C17.3267 1.7829 18.1459 2.00386 18.638 2.35582C18.8398 2.50014 18.9406 2.5723 19 2.5723C19.0594 2.5723 19.1602 2.50014 19.362 2.35582C19.8541 2.00386 20.6733 1.7829 21.6119 2.3312C22.8437 3.0508 23.1224 5.42477 20.2812 7.4276C19.74 7.80908 19.4694 7.99982 19 7.99982C18.5306 7.99982 18.26 7.80908 17.7188 7.4276C14.8776 5.42477 15.1563 3.0508 16.3881 2.3312Z" stroke="#8C9C72" stroke-width="1.5" stroke-linecap="round"/>
</svg>
