<svg width="148" height="148" viewBox="0 0 148 148" fill="none" xmlns="http://www.w3.org/2000/svg">
<path d="M27.75 58.5833C27.75 84.1262 48.4568 104.833 74 104.833C99.5429 104.833 120.25 84.1262 120.25 58.5833C120.25 33.0401 99.5429 12.3333 74 12.3333C48.4568 12.3333 27.75 33.0401 27.75 58.5833Z" stroke="#455F2C" stroke-width="4" stroke-linecap="round" stroke-linejoin="round"/>
<path d="M55.5 62.6947C55.5 62.6947 60.125 62.6946 64.75 70.9167C64.75 70.9167 79.4415 50.3611 92.5 46.25" stroke="#455F2C" stroke-width="4" stroke-linecap="round" stroke-linejoin="round"/>
<path d="M104.109 92.5L108.242 112.294C110.897 125.013 112.225 131.372 109.497 134.386C106.77 137.399 102.034 134.807 92.561 129.622L78.5411 121.948C76.3026 120.722 75.1834 120.11 74 120.11C72.8166 120.11 71.6974 120.722 69.4589 121.948L55.4388 129.622C45.9662 134.807 41.2298 137.399 38.5025 134.386C35.7752 131.372 37.1029 125.013 39.7584 112.294L43.8914 92.5" stroke="#455F2C" stroke-width="4" stroke-linejoin="round"/>
</svg>
