<svg width="126" height="126" viewBox="0 0 126 126" fill="none" xmlns="http://www.w3.org/2000/svg">
<path d="M50.8477 10.8024L51.363 7.4205L48.4775 6.16123L51.6226 5.6056L52.1693 1.97091L53.9284 5.19825L57.0735 4.64262L54.794 6.81436L56.4185 9.81819L53.2806 8.2611L50.8477 10.8024ZM51.6162 9.23042L53.1584 7.56937L55.1763 8.60147L54.0925 6.71954L55.53 5.38133L53.5839 5.72513L52.4626 3.63108L52.1174 5.98421L50.1621 6.32965L51.9896 7.09105L51.6162 9.23042Z" fill="white"/>
<path d="M41.6624 9.24142L44.7124 8.09197L45.0658 9.02974L42.0159 10.1792L41.6624 9.24142ZM42.741 11.8377L46.2029 10.533L46.5629 11.4883L41.9617 13.2224L39.6495 7.0874L44.1281 5.39955L44.4881 6.35485L41.1489 7.6133L42.741 11.8377Z" fill="white"/>
<path d="M36.3079 15.9834L33.3228 10.1462L35.7244 8.91803C36.2414 8.65364 36.726 8.51101 37.1782 8.49015C37.636 8.46646 38.0445 8.55909 38.4038 8.76806C38.7632 8.97704 39.0523 9.29555 39.2712 9.72361C39.4901 10.1517 39.5791 10.5725 39.5382 10.9862C39.4944 11.3943 39.3289 11.777 39.0417 12.1342C38.7573 12.4831 38.3565 12.7897 37.8395 13.0541L36.0383 13.9752L36.2704 13.2359L37.3919 15.429L36.3079 15.9834ZM40.1271 14.0303L37.5679 12.667L38.727 12.0743L41.2945 13.4333L40.1271 14.0303ZM36.3301 13.3526L35.5821 13.083L37.3332 12.1874C37.8113 11.9429 38.1173 11.6567 38.2511 11.3288C38.3906 10.998 38.3665 10.6492 38.1788 10.2822C37.9883 9.90978 37.7196 9.68602 37.3727 9.61098C37.0313 9.53309 36.6215 9.6164 36.1434 9.86089L34.3923 10.7564L34.603 9.97539L36.3301 13.3526Z" fill="white"/>
<path d="M29.8262 20.2161L28.596 13.1327L29.5889 12.4609L35.714 16.2327L34.659 16.9464L29.2451 13.4738L29.6485 13.2009L30.8657 19.5128L29.8262 20.2161ZM30.1008 18.1984L29.837 17.2235L32.7693 15.2396L33.5761 15.8472L30.1008 18.1984Z" fill="white"/>
<path d="M28.1329 21.8397C27.7563 22.1679 27.3523 22.4123 26.9209 22.573C26.49 22.7249 26.0561 22.7925 25.6191 22.7758C25.1827 22.7503 24.7633 22.6397 24.3607 22.4439C23.9581 22.2481 23.5968 21.9666 23.2768 21.5995C22.9568 21.2324 22.7273 20.836 22.5883 20.4105C22.4494 19.985 22.4014 19.5546 22.4446 19.1194C22.4836 18.6796 22.6098 18.2589 22.8232 17.8576C23.0325 17.4515 23.3278 17.0823 23.7091 16.75C24.1139 16.3972 24.5449 16.1457 25.0022 15.9956C25.4553 15.8408 25.9162 15.7994 26.3848 15.8714L26.2779 16.9461C25.9308 16.909 25.6057 16.9398 25.3024 17.0385C24.995 17.1325 24.7119 17.2923 24.453 17.518C24.1941 17.7436 23.9933 17.9932 23.8506 18.2666C23.7127 18.5359 23.6314 18.818 23.6067 19.1129C23.5868 19.4036 23.6244 19.6938 23.7196 19.9836C23.8195 20.2692 23.9802 20.5392 24.2018 20.7933C24.4233 21.0475 24.6687 21.2436 24.9381 21.3815C25.2121 21.5154 25.4945 21.5923 25.7852 21.6122C26.0807 21.6281 26.3712 21.5861 26.6569 21.4862C26.9472 21.3822 27.2219 21.2173 27.4807 20.9917C27.7396 20.7661 27.9387 20.5097 28.0778 20.2228C28.2129 19.9311 28.2837 19.6085 28.2903 19.2549L29.3757 19.3028C29.3789 19.7721 29.2749 20.223 29.0638 20.6555C28.8527 21.088 28.5424 21.4827 28.1329 21.8397Z" fill="white"/>
<path d="M17.5445 22.8844L18.3176 21.9437L23.3829 26.1061L22.6099 27.0468L17.5445 22.8844ZM20.4573 29.6663L19.6843 30.6071L14.6189 26.4446L15.392 25.5039L20.4573 29.6663ZM20.4985 25.1906L18.221 27.962L17.4178 27.302L19.6953 24.5305L20.4985 25.1906Z" fill="white"/>
<path d="M17.2219 34.3028L12.5717 31.3175L11.3978 33.146L10.5309 32.5895L13.5364 27.9078L14.4033 28.4644L13.2295 30.2929L17.8796 33.2782L17.2219 34.3028Z" fill="white"/>
<path d="M15.008 38.1974L9.21644 35.1248L9.78707 34.0492L15.5787 37.1218L15.008 38.1974Z" fill="white"/>
<path d="M12.075 44.9233L5.17877 44.5403L5.64249 43.364L11.8691 43.7347L11.6389 44.3185L6.86193 40.2708L7.27413 39.2252L13.5076 39.5784L13.2843 40.1448L8.49699 36.1232L8.92294 35.0428L14.2253 39.4688L13.7513 40.6712L8.11991 40.3741L8.24357 40.0604L12.5525 43.7122L12.075 44.9233Z" fill="white"/>
<path d="M9.52244 55.3336L3.07827 54.1268L3.60579 51.3098C3.73681 50.6101 3.98676 50.0217 4.35564 49.5445C4.72452 49.0672 5.1759 48.7261 5.70977 48.5212C6.24365 48.3162 6.83586 48.2747 7.48642 48.3965C8.13084 48.5172 8.66789 48.7702 9.09757 49.1556C9.52111 49.5398 9.81848 50.0211 9.98969 50.5995C10.1609 51.1779 10.181 51.8169 10.05 52.5165L9.52244 55.3336ZM8.7339 53.9472L9.02696 52.3821C9.11776 51.8973 9.10385 51.4627 8.98524 51.0784C8.86778 50.688 8.66116 50.3666 8.36537 50.1143C8.07073 49.8558 7.70247 49.6852 7.26058 49.6025C6.81256 49.5186 6.40752 49.5444 6.04547 49.6798C5.67842 49.808 5.36951 50.0329 5.11874 50.3544C4.86911 50.6697 4.6989 51.0698 4.6081 51.5547L4.31503 53.1197L8.7339 53.9472Z" fill="white"/>
<path d="M5.30961 59.7039L5.53095 56.4521L6.53079 56.5201L6.30945 59.7719L5.30961 59.7039ZM8.11927 59.8013L8.37051 56.1102L9.38904 56.1796L9.05512 61.0854L2.51407 60.6401L2.83909 55.8652L3.85762 55.9345L3.61529 59.4947L8.11927 59.8013Z" fill="white"/>
<path d="M9.133 65.5192L3.61136 65.7369L3.69695 67.9081L2.66749 67.9487L2.44835 62.3896L3.47781 62.349L3.5634 64.5203L9.08504 64.3026L9.133 65.5192Z" fill="white"/>
<path d="M6.18745 71.4539L5.72501 68.218L6.7449 68.0723L7.20735 71.3081L6.18745 71.4539ZM9.67761 70.851L9.84986 72.0564L3.35962 72.9839L2.68252 68.246L3.69314 68.1016L4.19799 71.6341L9.67761 70.851Z" fill="white"/>
<path d="M11.6545 79.5777L4.56694 78.3716L4.26535 77.2114L9.86614 72.6976L10.1866 73.9304L5.10523 77.8737L4.98271 77.4023L11.3387 78.3631L11.6545 79.5777ZM9.84433 78.645L8.83726 78.5681L7.94663 75.1416L8.78877 74.584L9.84433 78.645Z" fill="white"/>
<path d="M13.6479 84.5726L7.55069 86.9824L6.5592 84.4738C6.34576 83.9338 6.2504 83.4377 6.27313 82.9856C6.29357 82.5277 6.42506 82.13 6.66762 81.7924C6.91019 81.4548 7.25503 81.1977 7.70216 81.0209C8.14929 80.8442 8.57676 80.7961 8.98457 80.8766C9.38657 80.9595 9.75156 81.161 10.0795 81.4812C10.3994 81.7979 10.6661 82.2262 10.8795 82.7663L11.6231 84.6477L10.9096 84.3456L13.2004 83.4402L13.6479 84.5726ZM12.0712 80.5832L10.4681 82.9994L9.98958 81.7887L11.5892 79.3638L12.0712 80.5832ZM11.0315 84.2974L10.6911 85.0161L9.96818 83.1869C9.7708 82.6875 9.51533 82.3554 9.20179 82.1907C8.88595 82.0201 8.5364 82.0105 8.15315 82.162C7.76409 82.3158 7.51553 82.5617 7.40746 82.8998C7.29711 83.2322 7.34062 83.648 7.53799 84.1474L8.26095 85.9766L7.50382 85.6917L11.0315 84.2974Z" fill="white"/>
<path d="M15.1818 87.4492C15.4185 87.8891 15.5674 88.3372 15.6286 88.7935C15.6813 89.2473 15.6512 89.6854 15.5381 90.1079C15.4166 90.5278 15.2158 90.9123 14.9358 91.2616C14.6557 91.6108 14.3012 91.9008 13.8723 92.1316C13.4435 92.3623 13.0061 92.4984 12.5604 92.5397C12.1146 92.581 11.6844 92.5324 11.2695 92.394C10.8492 92.2586 10.467 92.0424 10.1228 91.7454C9.7732 91.4514 9.47856 91.0817 9.23891 90.6363C8.98447 90.1634 8.8347 89.6874 8.7896 89.2082C8.73899 88.732 8.80067 88.2734 8.97461 87.8324L9.99897 88.1746C9.88596 88.5049 9.84399 88.8288 9.87308 89.1464C9.89666 89.467 9.98981 89.7784 10.1525 90.0809C10.3153 90.3833 10.5142 90.6343 10.7492 90.834C10.9813 91.0282 11.2384 91.1699 11.5205 91.2593C11.7995 91.3431 12.0909 91.3707 12.3946 91.342C12.6952 91.3078 12.9941 91.2109 13.291 91.0511C13.5879 90.8913 13.8335 90.6954 14.0276 90.4633C14.2189 90.2257 14.3564 89.9673 14.4402 89.6882C14.5211 89.4037 14.5444 89.111 14.5102 88.8103C14.4731 88.5041 14.3732 88.1998 14.2105 87.8974C14.0477 87.595 13.8419 87.3442 13.5928 87.1449C13.3383 86.9486 13.0394 86.8081 12.696 86.7234L12.9831 85.6756C13.4414 85.7764 13.8581 85.9776 14.2332 86.2792C14.6082 86.5809 14.9244 86.9709 15.1818 87.4492Z" fill="white"/>
<path d="M23.1868 98.4726L19.9828 99.6715L20.2902 102.805L18.2717 100.33L14.8317 101.624L16.7919 98.5151L14.7734 96.04L17.7808 96.9714L19.6115 94.0886L19.7819 97.5874L23.1868 98.4726ZM21.4396 98.568L19.2375 98.0314L19.1548 95.7663L18.0401 97.6301L16.1708 97.0275L17.4198 98.559L16.1382 100.559L18.361 99.713L19.6159 101.252L19.3897 99.285L21.4396 98.568Z" fill="white"/>
<path d="M26.3015 107.253L23.811 105.151L24.4574 104.385L26.948 106.487L26.3015 107.253ZM28.0425 105.046L25.2155 102.659L25.8741 101.879L29.6314 105.051L25.4022 110.061L21.7451 106.973L22.4036 106.193L25.1304 108.495L28.0425 105.046Z" fill="white"/>
<path d="M34.7989 108.641L31.1578 114.094L28.9146 112.595C28.4317 112.273 28.0709 111.919 27.8323 111.535C27.5884 111.147 27.4701 110.745 27.4774 110.329C27.4846 109.914 27.6218 109.506 27.8888 109.106C28.1558 108.706 28.4799 108.423 28.861 108.257C29.2386 108.097 29.6534 108.054 30.1054 108.131C30.5486 108.209 31.0117 108.41 31.4946 108.732L33.177 109.856L32.4184 110.014L33.7864 107.965L34.7989 108.641ZM31.2317 106.259L31.2891 109.158L30.2064 108.435L30.1412 105.531L31.2317 106.259ZM32.4912 109.905L32.6204 110.689L30.9848 109.597C30.5382 109.299 30.1392 109.171 29.7876 109.214C29.4308 109.254 29.138 109.445 28.9091 109.787C28.6768 110.135 28.6124 110.479 28.716 110.818C28.8145 111.155 29.087 111.472 29.5335 111.77L31.1692 112.862L30.3845 113.059L32.4912 109.905Z" fill="white"/>
<path d="M41.6544 112.237L36.0697 116.765L34.999 116.225L35.3059 109.038L36.4434 109.612L36.051 116.031L35.616 115.812L40.5336 111.672L41.6544 112.237ZM39.7589 112.981L39.0363 113.687L35.8745 112.094L36.0116 111.093L39.7589 112.981Z" fill="white"/>
<path d="M43.8971 112.924C44.3673 113.092 44.7777 113.326 45.1283 113.624C45.471 113.926 45.7416 114.272 45.94 114.662C46.1305 115.055 46.2384 115.476 46.2638 115.923C46.2891 116.37 46.2195 116.822 46.055 117.281C45.8904 117.739 45.6563 118.133 45.3525 118.461C45.0487 118.79 44.6963 119.042 44.2954 119.216C43.8923 119.397 43.4635 119.492 43.009 119.501C42.5524 119.516 42.0861 119.438 41.6101 119.268C41.1047 119.086 40.675 118.832 40.321 118.506C39.965 118.186 39.7041 117.804 39.5385 117.36L40.5289 116.929C40.6658 117.25 40.8512 117.519 41.0852 117.736C41.3171 117.958 41.5947 118.128 41.9179 118.244C42.2412 118.36 42.5569 118.413 42.8652 118.405C43.1677 118.394 43.4536 118.327 43.723 118.205C43.9866 118.081 44.2216 117.906 44.4282 117.682C44.6289 117.455 44.7862 117.183 44.9001 116.866C45.0141 116.549 45.0656 116.239 45.0547 115.936C45.038 115.632 44.9675 115.348 44.8431 115.084C44.7129 114.819 44.5346 114.585 44.3081 114.385C44.0757 114.182 43.7979 114.022 43.4747 113.906C43.1515 113.79 42.8307 113.742 42.5123 113.76C42.1917 113.784 41.8755 113.88 41.5636 114.046L41.0763 113.075C41.4845 112.844 41.9288 112.715 42.4094 112.688C42.8899 112.662 43.3858 112.74 43.8971 112.924Z" fill="white"/>
<path d="M49.9719 121.659L48.7737 121.443L49.9384 114.991L51.1366 115.207L49.9719 121.659ZM54.4732 115.81L55.6714 116.026L54.5067 122.478L53.3085 122.262L54.4732 115.81ZM50.5453 117.956L54.0754 118.593L53.8907 119.616L50.3606 118.979L50.5453 117.956Z" fill="white"/>
<path d="M60.0988 116.374L59.7596 121.889L61.9284 122.023L61.8651 123.051L56.3122 122.709L56.3755 121.681L58.5443 121.814L58.8836 116.299L60.0988 116.374Z" fill="white"/>
<path d="M64.5787 116.408L64.7196 122.963L63.5023 122.989L63.3614 116.434L64.5787 116.408Z" fill="white"/>
<path d="M71.8806 115.69L74.9084 121.898L73.6552 122.066L70.9432 116.449L71.5651 116.365L70.36 122.51L69.2461 122.66L66.5155 117.045L67.1189 116.964L65.9416 123.104L64.7906 123.259L66.0698 116.472L67.3508 116.299L69.8369 121.361L69.5027 121.406L70.5903 115.863L71.8806 115.69Z" fill="white"/>
<path d="M82.2144 112.843L84.3026 119.058L81.5859 119.97C80.9111 120.197 80.2755 120.266 79.679 120.176C79.0825 120.087 78.5646 119.859 78.1254 119.493C77.6861 119.127 77.3611 118.63 77.1503 118.003C76.9415 117.381 76.9006 116.789 77.0276 116.226C77.1566 115.669 77.4318 115.174 77.8533 114.743C78.2748 114.312 78.823 113.982 79.4977 113.756L82.2144 112.843ZM81.3884 114.207L79.8791 114.714C79.4115 114.872 79.0389 115.096 78.7612 115.386C78.4775 115.679 78.2977 116.016 78.2216 116.398C78.1396 116.781 78.1702 117.186 78.3134 117.612C78.4585 118.044 78.6785 118.385 78.9733 118.635C79.2642 118.893 79.6111 119.053 80.0141 119.115C80.4111 119.18 80.8434 119.133 81.311 118.976L82.8203 118.469L81.3884 114.207Z" fill="white"/>
<path d="M88.0838 114.39L85.1367 115.783L84.7086 114.876L87.6557 113.484L88.0838 114.39ZM86.799 111.89L83.4538 113.47L83.0178 112.547L87.4638 110.447L90.2641 116.375L85.9367 118.419L85.5006 117.496L88.7272 115.972L86.799 111.89Z" fill="white"/>
<path d="M91.2975 108.217L94.1796 112.932L96.0336 111.799L96.5709 112.678L91.8241 115.579L91.2868 114.7L93.1407 113.567L90.2587 108.852L91.2975 108.217Z" fill="white"/>
<path d="M97.9149 107.896L95.3152 109.877L94.6907 109.058L97.2904 107.076L97.9149 107.896ZM95.687 105.142L96.6554 104.404L100.629 109.619L96.8229 112.52L96.2041 111.708L99.0423 109.545L95.687 105.142Z" fill="white"/>
<path d="M102.343 99.1613L104.745 105.937L103.879 106.766L97.2073 104.077L98.1275 103.196L104.048 105.71L103.696 106.047L101.436 100.029L102.343 99.1613ZM102.411 101.196L102.835 102.113L100.277 104.561L99.3797 104.098L102.411 101.196Z" fill="white"/>
<path d="M105.731 94.9857L110.808 99.1342L109.101 101.223C108.734 101.673 108.347 101.998 107.941 102.198C107.531 102.404 107.12 102.483 106.707 102.436C106.294 102.388 105.901 102.213 105.529 101.908C105.157 101.604 104.906 101.254 104.778 100.859C104.654 100.468 104.652 100.051 104.772 99.6084C104.892 99.1747 105.136 98.733 105.504 98.2834L106.784 96.7168L106.868 97.4872L104.961 95.9285L105.731 94.9857ZM103.017 98.3073L105.908 98.5289L105.084 99.537L102.187 99.3226L103.017 98.3073ZM106.767 97.4042L107.56 97.351L106.315 98.874C105.976 99.2898 105.81 99.6747 105.819 100.029C105.824 100.388 105.986 100.698 106.305 100.958C106.629 101.223 106.965 101.32 107.313 101.25C107.657 101.184 107.999 100.943 108.339 100.528L109.583 99.0045L109.704 99.8044L106.767 97.4042Z" fill="white"/>
<path d="M107.495 92.2441C107.764 91.823 108.082 91.4745 108.451 91.1986C108.821 90.9313 109.219 90.7441 109.643 90.6368C110.068 90.5382 110.502 90.526 110.944 90.6003C111.385 90.6745 111.811 90.8426 112.222 91.1046C112.632 91.3665 112.964 91.682 113.218 92.0511C113.471 92.4201 113.638 92.8195 113.72 93.2491C113.806 93.6821 113.804 94.1213 113.712 94.5665C113.626 95.0152 113.447 95.4527 113.175 95.879C112.886 96.3317 112.544 96.6946 112.147 96.9676C111.756 97.2439 111.326 97.4137 110.856 97.4768L110.655 96.4156C110.999 96.3533 111.302 96.232 111.565 96.0517C111.833 95.8749 112.06 95.6417 112.245 95.3521C112.429 95.0626 112.552 94.7666 112.611 94.464C112.668 94.1667 112.666 93.8731 112.607 93.5833C112.544 93.2988 112.426 93.0309 112.253 92.7798C112.076 92.5339 111.846 92.3203 111.562 92.1389C111.277 91.9576 110.987 91.8387 110.689 91.7824C110.389 91.7312 110.096 91.7371 109.812 91.8C109.524 91.8682 109.257 91.9904 109.011 92.1669C108.762 92.3486 108.545 92.5842 108.36 92.8737C108.175 93.1632 108.057 93.4652 108.004 93.7798C107.957 94.0977 107.98 94.4272 108.073 94.7683L107.018 95.0286C106.883 94.5792 106.856 94.1173 106.936 93.6428C107.017 93.1683 107.203 92.7021 107.495 92.2441Z" fill="white"/>
<path d="M113.217 79.8805L115.826 82.0934L118.412 80.2974L117.235 83.2664L120.042 85.6387L116.372 85.4432L115.195 88.4122L114.542 85.3323L111.132 85.1394L114.104 83.2849L113.217 79.8805ZM114.152 81.3594L114.757 83.5437L112.82 84.7203L114.991 84.7848L115.376 86.7107L116.104 84.8735L118.475 85.0175L116.653 83.4891L117.385 81.6433L115.778 82.7996L114.152 81.3594Z" fill="white"/>
<path d="M119.365 72.8801L118.743 76.0797L117.759 75.8886L118.381 72.689L119.365 72.8801ZM116.589 72.4363L115.883 76.068L114.881 75.8734L115.819 71.0464L122.254 72.2965L121.342 76.9947L120.34 76.8001L121.02 73.2971L116.589 72.4363Z" fill="white"/>
<path d="M116.434 64.7846L122.97 65.3055L122.755 67.9944C122.709 68.5732 122.576 69.0606 122.357 69.4565C122.137 69.8587 121.844 70.1579 121.477 70.3542C121.111 70.5505 120.688 70.6295 120.209 70.5913C119.729 70.5531 119.324 70.4081 118.994 70.1562C118.669 69.9049 118.43 69.5632 118.277 69.1313C118.129 68.7061 118.078 68.2041 118.124 67.6253L118.285 65.6086L118.793 66.194L116.337 65.9983L116.434 64.7846ZM116.093 69.0606L118.596 67.5971L118.493 68.8949L115.989 70.3677L116.093 69.0606ZM118.662 66.1836L119.284 65.6882L119.128 67.6489C119.085 68.1842 119.168 68.5948 119.377 68.8808C119.586 69.173 119.895 69.3355 120.306 69.3683C120.723 69.4015 121.055 69.2901 121.301 69.0341C121.546 68.7843 121.69 68.3918 121.733 67.8565L121.889 65.8959L122.443 66.485L118.662 66.1836Z" fill="white"/>
<path d="M116.231 57.0457L122.907 59.7144L122.958 60.9121L116.534 64.148L116.479 62.8754L122.276 60.0881L122.297 60.5747L116.285 58.2996L116.231 57.0457ZM117.805 58.338L118.773 58.6249L118.924 62.162L117.983 62.5301L117.805 58.338Z" fill="white"/>
<path d="M115.737 54.7527C115.655 54.26 115.659 53.7878 115.748 53.3362C115.845 52.8897 116.015 52.4848 116.259 52.1215C116.509 51.7634 116.824 51.4643 117.201 51.2243C117.579 50.9843 118.009 50.8244 118.489 50.7446C118.969 50.6647 119.427 50.6773 119.862 50.7822C120.298 50.8871 120.689 51.0721 121.037 51.3371C121.391 51.6011 121.683 51.9292 121.913 52.3214C122.148 52.7126 122.308 53.1577 122.391 53.6566C122.479 54.1864 122.467 54.6852 122.355 55.1533C122.249 55.6203 122.042 56.0344 121.735 56.3955L120.876 55.7407C121.09 55.4647 121.234 55.1717 121.309 54.8617C121.391 54.5507 121.403 54.2259 121.347 53.8871C121.29 53.5483 121.183 53.2465 121.025 52.9815C120.868 52.7228 120.671 52.5056 120.433 52.3299C120.196 52.1604 119.929 52.0402 119.632 51.9692C119.337 51.9044 119.023 51.8996 118.69 51.9549C118.357 52.0102 118.062 52.1163 117.803 52.2732C117.545 52.4363 117.332 52.6363 117.162 52.8734C116.994 53.1166 116.877 53.386 116.812 53.6816C116.748 53.9833 116.745 54.3036 116.801 54.6424C116.857 54.9812 116.971 55.2851 117.142 55.5541C117.32 55.8221 117.557 56.0516 117.855 56.2427L117.245 57.1416C116.843 56.8982 116.514 56.5731 116.257 56.1665C115.999 55.7599 115.826 55.2886 115.737 54.7527Z" fill="white"/>
<path d="M120.403 45.1903L120.798 46.3419L114.597 48.4705L114.202 47.3189L120.403 45.1903ZM113.101 44.1121L112.706 42.9605L118.907 40.8319L119.302 41.9835L113.101 44.1121ZM116.89 46.4952L115.725 43.1024L116.708 42.7649L117.873 46.1577L116.89 46.4952Z" fill="white"/>
<path d="M110.85 38.9253L115.831 36.5325L114.891 34.5738L115.819 34.1277L118.228 39.1425L117.3 39.5886L116.359 37.63L111.378 40.0228L110.85 38.9253Z" fill="white"/>
<path d="M108.697 34.9971L114.351 31.6784L114.967 32.7285L109.313 36.0472L108.697 34.9971Z" fill="white"/>
<path d="M104.509 28.972L108.453 23.3019L109.211 24.3138L105.629 29.4203L105.253 28.9181L111.205 26.9747L111.879 27.8741L108.308 32.9956L107.943 32.5084L113.878 30.5425L114.575 31.472L108.025 33.6642L107.25 32.6298L110.457 27.9915L110.659 28.2613L105.29 30.0139L104.509 28.972Z" fill="white"/>
<path d="M96.9858 21.3377L101.394 16.4846L103.515 18.4115C104.042 18.8901 104.412 19.4116 104.625 19.976C104.838 20.5404 104.891 21.1036 104.786 21.6656C104.68 22.2277 104.405 22.7536 103.96 23.2436C103.519 23.7289 103.022 24.0534 102.468 24.217C101.919 24.376 101.353 24.3767 100.771 24.219C100.189 24.0613 99.6342 23.7432 99.1073 23.2646L96.9858 21.3377ZM98.5798 21.3937L99.7584 22.4642C100.124 22.7959 100.501 23.012 100.89 23.1126C101.284 23.2175 101.666 23.2102 102.036 23.0907C102.411 22.9755 102.749 22.7514 103.052 22.4187C103.358 22.0812 103.549 21.7229 103.623 21.3436C103.707 20.9638 103.677 20.5829 103.535 20.2008C103.398 19.8228 103.146 19.468 102.781 19.1363L101.602 18.0658L98.5798 21.3937Z" fill="white"/>
<path d="M95.4752 15.458L98.1275 17.3524L97.545 18.1679L94.8927 16.2735L95.4752 15.458ZM93.9183 17.7989L96.9288 19.9492L96.3355 20.7799L92.3341 17.922L96.1447 12.5869L100.039 15.3686L99.446 16.1994L96.5421 14.1253L93.9183 17.7989Z" fill="white"/>
<path d="M88.5183 15.6624L91.2297 10.8474L89.3363 9.78122L89.8418 8.88351L94.6895 11.6133L94.184 12.511L92.2906 11.4448L89.5792 16.2598L88.5183 15.6624Z" fill="white"/>
<path d="M85.0114 10.0412L88.0088 11.345L87.5979 12.2898L84.6005 10.9859L85.0114 10.0412ZM83.6937 13.3287L82.5772 12.8431L85.1924 6.83105L89.5812 8.74014L89.1739 9.6763L85.9017 8.25288L83.6937 13.3287Z" fill="white"/>
<path d="M75.2272 10.4339L79.9722 5.03274L81.1182 5.38468L82.0227 12.5209L80.8051 12.1469L80.1137 5.75225L80.5793 5.89523L76.4269 10.8024L75.2272 10.4339ZM76.9708 9.38218L77.5646 8.56518L80.949 9.60452L80.9819 10.614L76.9708 9.38218Z" fill="white"/>
<path d="M69.9289 9.5107L71.076 3.05564L73.7318 3.52756C74.3035 3.62916 74.7759 3.80822 75.1488 4.06476C75.528 4.32238 75.7976 4.64299 75.9577 5.02659C76.1179 5.41018 76.1559 5.83867 76.0718 6.31204C75.9877 6.78541 75.8043 7.17457 75.5219 7.47951C75.2405 7.77831 74.8774 7.98332 74.4328 8.09456C73.9953 8.20074 73.4907 8.20304 72.919 8.10144L70.9272 7.74749L71.5587 7.29846L71.1277 9.72372L69.9289 9.5107ZM74.1524 10.2612L72.9364 7.62889L74.2182 7.85667L75.4434 10.4906L74.1524 10.2612ZM71.5357 7.42757L71.1025 6.76079L73.039 7.10491C73.5677 7.19885 73.9845 7.15558 74.2892 6.97509C74.6001 6.7957 74.7916 6.50312 74.8637 6.09738C74.9369 5.68548 74.858 5.34484 74.6268 5.07546C74.4018 4.80717 74.0249 4.62605 73.4962 4.5321L71.5597 4.18799L72.1994 3.69285L71.5357 7.42757Z" fill="white"/>
<path d="M66.6753 9.30729C66.1766 9.27802 65.717 9.16973 65.2964 8.98243C64.8824 8.78925 64.5253 8.53374 64.2249 8.21589C63.9312 7.89217 63.7091 7.51949 63.5588 7.09785C63.4084 6.67621 63.3474 6.22229 63.376 5.7361C63.4045 5.2499 63.5181 4.80623 63.7168 4.40508C63.9155 4.00393 64.1825 3.66308 64.518 3.38254C64.8538 3.09577 65.2384 2.88379 65.6718 2.7466C66.1055 2.60317 66.5748 2.54628 67.0797 2.57591C67.6158 2.60737 68.0996 2.72959 68.5312 2.94256C68.9631 3.14929 69.3212 3.44239 69.6054 3.82184L68.7767 4.51439C68.5548 4.24493 68.3011 4.03927 68.0154 3.89741C67.7302 3.74932 67.4161 3.66521 67.0733 3.64509C66.7304 3.62497 66.4124 3.6626 66.119 3.75797C65.832 3.8537 65.5764 3.9982 65.3524 4.19146C65.1347 4.38509 64.9583 4.61867 64.8234 4.89222C64.6948 5.16613 64.6206 5.47139 64.6008 5.80798C64.5811 6.14458 64.619 6.45642 64.7148 6.7435C64.8168 7.03095 64.9645 7.28356 65.1582 7.50132C65.358 7.71946 65.5949 7.89286 65.8688 8.02152C66.149 8.15055 66.4605 8.22512 66.8033 8.24524C67.1461 8.26536 67.4677 8.22168 67.768 8.11421C68.0686 8.00051 68.345 7.8197 68.5973 7.57181L69.3388 8.36589C69.0125 8.70326 68.6226 8.95246 68.169 9.11349C67.7155 9.27451 67.2176 9.33911 66.6753 9.30729Z" fill="white"/>
</svg>
