<svg width="90" height="90" viewBox="0 0 90 90" fill="none" xmlns="http://www.w3.org/2000/svg">
<rect x="0.731934" y="0.731934" width="88.3764" height="88.3764" rx="44.1882" fill="#8C9C72"/>
<path d="M49.9858 38.9163C50.1114 39.0289 50.1114 39.0289 50.2394 39.1438C51.5253 40.3577 52.2373 41.9212 52.7063 43.6068C52.7914 43.5313 52.8766 43.4559 52.9643 43.3781C53.9502 42.5356 54.9628 41.7967 56.1773 41.3319C56.2374 41.3088 56.2974 41.2856 56.3593 41.2618C57.232 40.9432 58.0835 40.8497 59.0092 40.8511C59.1636 40.8513 59.1636 40.8513 59.3212 40.8516C60.1422 40.8639 60.8434 40.9777 61.6183 41.2615C61.703 41.2897 61.7878 41.3179 61.8751 41.3469C63.5912 41.9634 64.97 43.3332 65.7752 44.9436C66.8307 47.3939 66.3011 50.1057 65.3947 52.5093C64.5449 54.6058 63.2455 56.4534 61.7245 58.1136C61.552 58.3045 61.3888 58.4998 61.2254 58.6984C59.9524 60.1491 58.2176 61.2369 56.5525 62.1811C56.479 62.2232 56.4054 62.2652 56.3296 62.3085C53.5842 63.8693 50.6811 65.0399 47.6992 66.0625C47.6207 66.09 47.5422 66.1174 47.4613 66.1456C46.8597 66.3451 46.8597 66.3451 46.5149 66.215C46.3737 66.1001 46.3737 66.1001 46.2411 65.9548C46.1917 65.9012 46.1422 65.8476 46.0913 65.7923C46.0395 65.7344 45.9877 65.6766 45.9344 65.6169C45.8801 65.5572 45.8258 65.4975 45.7699 65.436C45.3116 64.9285 44.8781 64.4036 44.451 63.8697C44.3579 63.7568 44.2646 63.6441 44.1711 63.5315C40.9759 59.67 38.1895 55.1981 37.4153 50.1735C37.4055 50.1119 37.3957 50.0503 37.3856 49.9868C37.127 48.0792 37.1597 45.8548 37.6029 43.982C37.6211 43.9034 37.6392 43.8248 37.6579 43.7438C38.1685 41.6042 39.0668 39.4107 40.9801 38.1658C41.8693 37.6578 42.7789 37.294 43.7944 37.1339C43.8706 37.1207 43.9467 37.1075 44.0252 37.094C46.1248 36.8045 48.4185 37.4834 49.9858 38.9163Z" fill="white"/>
<path d="M49.0231 24.7772C51.2103 26.5403 52.1684 29.1543 52.4992 31.8681C52.5304 32.1876 52.534 32.5067 52.5345 32.8274C52.5348 32.8977 52.5351 32.9681 52.5355 33.0405C52.5359 33.1887 52.5362 33.337 52.5361 33.4852C52.5364 33.7066 52.5381 33.9281 52.5398 34.1495C52.5432 35.0958 52.4726 36.0106 52.3311 36.9462C52.0238 36.8007 51.7683 36.6213 51.4989 36.4133C49.2466 34.6824 46.4702 33.9238 43.6457 34.273C41.7136 34.558 39.8869 35.3325 38.4473 36.6648C38.3756 36.729 38.3039 36.7932 38.23 36.8594C35.7646 39.179 34.6424 42.8642 34.4977 46.1698C34.4853 46.6777 34.4899 47.1854 34.4955 47.6933C34.4965 47.8442 34.4973 47.9952 34.4981 48.1461C34.5001 48.5092 34.5033 48.8722 34.5073 49.2353C32.6594 48.3379 30.9796 47.2902 29.4771 45.8794C29.2804 45.6953 29.0791 45.5212 28.8728 45.3481C27.4617 44.1112 26.3468 42.4988 25.4077 40.8862C25.374 40.829 25.3403 40.7718 25.3056 40.7128C23.9014 38.3024 23.0123 35.2206 23.7217 32.4525C24.2895 30.6442 25.3361 29.2319 26.9812 28.2857C28.0179 27.746 29.1116 27.3483 30.2858 27.2838C30.3672 27.2789 30.4486 27.2739 30.5324 27.2688C32.8889 27.195 34.9244 28.1771 36.6649 29.7229C36.7911 29.8468 36.9166 29.9715 37.0401 30.0981C37.0924 29.9559 37.0924 29.9559 37.1457 29.8108C37.1848 29.7078 37.1848 29.7078 37.2248 29.6027C37.2965 29.4136 37.3666 29.2239 37.4359 29.034C38.2557 26.8661 39.569 25.194 41.672 24.1529C44.0427 23.1487 46.8942 23.2081 49.0231 24.7772Z" fill="white"/>
<path d="M59.6483 24.3758C59.9087 24.5981 60.1166 24.8439 60.3402 25.1028C60.7301 25.4353 61.2784 25.3617 61.7627 25.3578C62.0874 25.4077 62.0874 25.4077 62.3241 25.61C62.4626 25.8767 62.4626 25.8767 62.4655 26.1596C62.3499 26.4943 62.2064 26.6468 61.9466 26.8852C61.4826 27.3169 61.4246 27.4792 61.4014 28.1164C61.3961 28.2902 61.3961 28.2902 61.3907 28.4675C61.3292 28.8299 61.2553 28.9457 60.9616 29.1601C60.6655 29.1891 60.5638 29.1926 60.305 29.0663C60.174 28.9292 60.0473 28.788 59.9239 28.6441C59.5568 28.2436 59.3217 28.1636 58.7806 28.1399C58.6717 28.1421 58.5629 28.1442 58.4508 28.1465C58.1093 28.1259 57.9461 28.0559 57.6783 27.8467C57.5679 27.5293 57.5531 27.3624 57.6783 27.0494C57.8883 26.7868 58.1178 26.5863 58.3797 26.3769C58.5348 26.2573 58.5348 26.2573 58.6164 26.0643C58.635 25.7671 58.6488 25.4706 58.6567 25.173C58.6695 24.9014 58.679 24.7029 58.8348 24.4751C59.112 24.2995 59.3311 24.332 59.6483 24.3758Z" fill="white"/>
<path d="M33.4752 58.2411C33.8096 58.4575 33.9002 58.731 34.0322 59.0913C34.1678 59.4539 34.1678 59.4539 34.4309 59.7304C34.518 59.7652 34.605 59.8 34.6948 59.8359C34.8417 59.8976 34.9882 59.9602 35.1345 60.0235C35.2064 60.0526 35.2784 60.0816 35.3525 60.1115C35.539 60.2111 35.539 60.2111 35.7267 60.4926C35.7677 60.7681 35.7677 60.7681 35.7267 61.0554C35.5209 61.2887 35.3368 61.4079 35.0374 61.4941C34.6122 61.6191 34.3835 61.6982 34.1502 62.091C34.0581 62.3062 33.9719 62.5241 33.8926 62.7444C33.7352 63.0698 33.6167 63.1663 33.2876 63.3069C33.0003 63.2776 33.0003 63.2776 32.7247 63.1193C32.5048 62.7952 32.3724 62.4417 32.2557 62.0698C31.985 61.6891 31.6392 61.606 31.2062 61.4563C30.9197 61.3266 30.811 61.2349 30.6609 60.9616C30.6433 60.6333 30.6433 60.6333 30.7547 60.305C31.0885 60.0423 31.4496 59.9397 31.8629 59.8652C32.1685 59.7766 32.1685 59.7766 32.2586 59.5596C32.3309 59.3406 32.3894 59.122 32.4433 58.8978C32.6335 58.3392 32.8729 58.1674 33.4752 58.2411Z" fill="white"/>
<path d="M28.527 54.688C28.8863 54.933 29.1509 55.2207 29.3478 55.6144C29.3952 56.1332 29.417 56.591 29.1954 57.0685C28.7977 57.487 28.409 57.7445 27.8292 57.8013C27.271 57.7556 26.8782 57.5619 26.4925 57.1564C26.1836 56.6746 26.1948 56.1698 26.2521 55.6144C26.4571 55.1968 26.7154 54.94 27.0964 54.6763C27.5811 54.5147 28.0444 54.521 28.527 54.688Z" fill="white"/>
<path d="M61.5478 32.5019C61.9944 32.7484 62.2088 33.0895 62.3687 33.569C62.419 34.1624 62.3421 34.5786 61.9934 35.07C61.6059 35.4298 61.2373 35.5165 60.7233 35.5482C60.2448 35.5292 59.9336 35.338 59.572 35.0406C59.2313 34.6221 59.1591 34.2865 59.1909 33.7566C59.2484 33.3258 59.3459 33.0502 59.6482 32.7247C60.259 32.2913 60.8598 32.1987 61.5478 32.5019Z" fill="white"/>
</svg>
