<svg width="184" height="185" viewBox="0 0 184 185" fill="none" xmlns="http://www.w3.org/2000/svg">
<rect y="0.0391846" width="184" height="184" rx="92" fill="#8C9C72"/>
<path d="M66.6959 25.896C76.9957 19.5143 85.9853 22.0861 91.3856 26.1826C93.6 27.8622 94.7069 28.7021 95.3584 28.7021C96.01 28.7021 97.1168 27.8622 99.3312 26.1826C104.731 22.0861 113.721 19.5143 124.021 25.896C137.539 34.2713 140.597 61.9018 109.418 85.2129C103.479 89.6529 100.51 91.8723 95.3584 91.8723C90.2068 91.8723 87.2375 89.6529 81.2988 85.2129C50.1199 61.9018 53.1785 34.2713 66.6959 25.896Z" stroke="white" stroke-width="4" stroke-linecap="round"/>
<path d="M36 105.842H52.7239C54.778 105.842 56.804 106.305 58.6412 107.194L72.9011 114.093C74.7383 114.982 76.7643 115.445 78.8184 115.445H86.0993C93.1413 115.445 98.8502 120.969 98.8502 127.783C98.8502 128.059 98.6616 128.301 98.3879 128.376L80.6439 133.283C77.4607 134.163 74.0523 133.856 71.0914 132.423L55.8475 125.048" stroke="white" stroke-width="4" stroke-linecap="round" stroke-linejoin="round"/>
<path d="M98.8502 123.3L130.923 113.446C136.609 111.675 142.755 113.775 146.317 118.707C148.892 122.273 147.843 127.38 144.092 129.545L91.6078 159.827C88.2697 161.753 84.3311 162.223 80.6599 161.133L36 147.881" stroke="white" stroke-width="4" stroke-linecap="round" stroke-linejoin="round"/>
</svg>
