<svg width="272" height="255" viewBox="0 0 272 255" fill="none" xmlns="http://www.w3.org/2000/svg">
<path d="M187.041 0.991744C187.551 0.932204 188.062 0.87267 188.588 0.811329C196.027 12.5585 199.791 26.3598 197.362 40.2634C195.416 47.7692 191.01 53.7571 185.522 59.0966C186.028 59.6322 186.534 60.1677 187.055 60.7195C188.064 61.8119 188.064 61.8119 189.093 62.9264C189.755 63.6373 190.418 64.3482 191.101 65.0806C201.441 77.9348 205.985 96.8821 208.302 112.922C208.45 113.903 208.599 114.884 208.752 115.895C210.351 128.301 209.841 140.109 207.556 152.366C207.46 153.055 207.364 153.744 207.265 154.455C204.431 172.611 191.38 190.557 177.307 201.758C156.873 216.444 131.452 223.646 106.412 219.84C83.299 216.014 60.6509 206.855 46.3021 187.404C44.5862 184.74 43.117 182.031 41.7689 179.164C41.4983 178.592 41.2277 178.02 40.9489 177.431C38.0276 169.742 39.8798 160.202 42.7871 152.744C51.3306 134.501 68.4249 123.775 86.7293 116.889C97.2299 113.202 108.091 110.552 118.892 107.914C136.22 103.669 155.96 97.6361 166.004 81.6353C168.488 77.0678 169.427 72.9628 169.79 67.751C169.036 68.0115 168.281 68.272 167.503 68.5405C149.212 74.6153 131.886 75.007 113.903 67.2694C113.333 67.0333 112.762 66.7973 112.175 66.554C108.051 64.7315 104.965 62.4788 101.728 59.3294C101.703 58.699 101.678 58.0686 101.653 57.4191C104.001 56.5613 105.108 56.5309 107.595 57.1197C112.934 57.6236 117.521 53.8425 121.905 51.2178C129.755 46.5461 137.062 42.2452 146.498 43.4826C147.257 43.5712 148.015 43.6598 148.796 43.7511C149.823 43.8764 149.823 43.8764 150.872 44.0043C152.532 44.0814 154.192 44.1527 155.854 44.1911C155.829 43.65 155.804 43.1088 155.779 42.5513C155.56 33.4552 157.563 26.3001 163.68 19.393C168.807 14.768 174.623 11.1556 180.534 7.62423C182.799 6.1382 182.799 6.1382 184.002 3.72707C185.179 1.71065 185.179 1.71065 187.041 0.991744ZM161.808 30.1812C161.343 31.2018 160.878 32.2224 160.399 33.2739C158.667 38.5555 159.659 42.9698 160.986 48.1986C159.886 49.1258 158.786 50.053 157.652 51.0083C157.22 50.6736 156.788 50.3389 156.343 49.994C151.258 46.7899 144.914 46.4701 139.148 47.5265C135.454 48.6756 132.224 50.2456 128.845 52.1228C128.354 52.3948 127.862 52.6668 127.355 52.947C125.8 53.8076 124.249 54.6734 122.697 55.5394C121.637 56.1276 120.577 56.7153 119.516 57.3028C116.931 58.7357 114.348 60.1733 111.767 61.6134C112.284 61.8471 112.802 62.0808 113.334 62.3216C119.559 65.1337 119.559 65.1337 121.672 66.1822C122.26 66.4171 122.848 66.6519 123.454 66.8939C123.949 66.6219 124.443 66.3499 124.953 66.0697C125.225 66.5641 125.497 67.0585 125.777 67.5679C141.202 72.244 157.429 68.8495 171.475 61.9448C174.443 66.477 173.968 69.2169 172.92 74.3545C169.331 86.5763 160.977 95.19 150.135 101.313C138.585 107.554 126.256 110.403 113.536 113.293C91.0055 118.436 63.1073 126.805 49.707 147.474C48.3625 150.014 47.25 152.598 46.1867 155.265C45.7858 156.11 45.3849 156.954 44.9718 157.824C43.123 163.059 42.3614 168.151 44.8292 173.322C47.9042 176.623 52.73 176.373 56.9767 176.653C58.3103 176.793 58.3103 176.793 59.6709 176.936C79.7552 178.37 101.823 171.006 117.184 158.047C120.967 154.387 123.402 150.282 125.784 145.631C126.614 144.191 127.448 142.754 128.294 141.323C129.086 143.136 129.086 143.136 129.605 145.481C128.776 147.591 128.776 147.591 127.428 149.728C126.718 150.854 126.718 150.854 125.993 152.004C120.918 159.556 115.206 164.508 107.252 168.817C106.221 169.377 106.221 169.377 105.169 169.948C88.2431 178.888 69.8211 181.111 50.9743 178.838C48.3893 178.473 48.3893 178.473 46.3387 178.602C53.5585 194.361 69.7683 204.585 85.4857 210.737C109.469 219.513 135.09 218.584 158.555 208.415C169.222 203.228 179.068 196.343 186.733 187.241C187.204 186.691 187.675 186.142 188.161 185.575C203.232 166.907 207.44 142.463 205.317 119.138C203.386 102.006 198.177 78.2106 185.677 65.4762C185.075 64.8542 184.472 64.2322 183.851 63.5913C183.302 63.0353 182.754 62.4792 182.189 61.9063C181.386 61.048 180.585 60.1878 179.791 59.3219C180.388 58.7795 180.985 58.2371 181.601 57.6783C189.436 50.2932 193.495 42.8905 194.227 31.9591C194.159 23.4724 191.353 15.6823 187.727 8.11576C172.107 16.3865 172.107 16.3865 161.808 30.1812Z" fill="#E9E4D6"/>
<path d="M39.896 170.436C41.7642 170.506 41.7642 170.506 44.1288 171.035C44.9216 171.928 44.9216 171.928 45.7303 172.838C49.0061 175.42 51.9236 175.34 56.0054 175.613C58.1489 175.8 59.9317 176.153 61.9595 176.84C60.8708 178.651 60.8708 178.651 59.0381 180.398C56.229 180.427 56.229 180.427 53.0869 179.891C52.0424 179.723 50.998 179.556 49.9219 179.383C49.1229 179.236 48.324 179.09 47.5008 178.939C48.3416 181.052 49.1824 183.166 50.0486 185.344C49.035 185.257 48.0213 185.171 46.977 185.082C46.7546 185.848 46.5321 186.615 46.303 187.404C43.2886 182.336 40.7077 177.429 39.559 171.598C39.6702 171.214 39.7814 170.831 39.896 170.436Z" fill="#E9E4D6"/>
<path d="M187.427 0.474297C189.195 3.68804 190.963 6.90179 192.785 10.2129C192.247 10.9917 192.247 10.9917 191.698 11.7863C192.922 14.0112 194.146 16.2361 195.407 18.5284C194.666 18.9364 193.924 19.3444 193.16 19.7647C192.418 18.465 191.683 17.162 190.95 15.8576C190.539 15.1323 190.129 14.4071 189.706 13.6598C188.627 11.5244 188.627 11.5244 187.727 8.11575C183.278 10.5637 178.828 13.0116 174.243 15.5338C176.608 12.1075 177.501 11.76 181.322 10.6635C181.05 10.1691 180.778 9.67468 180.498 9.16527C181.487 8.62128 182.476 8.0773 183.495 7.51682C183.223 7.0224 182.951 6.52798 182.67 6.01857C184.006 3.2917 184.731 1.95732 187.427 0.474297Z" fill="#E9E4D6"/>
<path d="M86.6196 142.842C89.4307 142.41 90.9978 142.617 93.5706 143.836C94.9004 146.253 95.0201 147.448 94.3437 150.12C93.1218 151.89 93.1218 151.89 91.1039 152.878C88.9641 153.201 88.9641 153.201 86.2295 151.778C84.67 149.531 83.718 148.11 83.848 145.342C84.7679 143.799 84.7679 143.799 86.6196 142.842Z" fill="#E9E4D6"/>
<path d="M131.85 105.213C139.096 101.819 146.356 98.4625 153.649 95.1717C153.52 96.6922 153.52 96.6922 153.388 98.2433C154.401 98.3298 155.415 98.4162 156.459 98.5053C148.869 102.896 141.541 106.681 133.161 109.37C132.728 107.998 132.296 106.626 131.85 105.213Z" fill="#E9E4D6"/>
<path d="M62.0664 130.916C65.3507 129.052 68.6448 127.206 71.9408 125.362C72.859 124.841 73.7772 124.319 74.7232 123.782C80.611 120.502 86.4152 117.923 92.8556 115.93C93.1276 116.424 93.3996 116.919 93.6798 117.428C94.3103 117.403 94.9407 117.379 95.5902 117.353C85.4532 123.11 85.4532 123.11 80.1956 124.846C79.9236 124.352 79.6516 123.857 79.3714 123.348C78.7088 123.728 78.7088 123.728 78.0329 124.115C76.0347 125.255 74.0301 126.383 72.0253 127.511C70.9826 128.109 70.9826 128.109 69.9188 128.72C68.9161 129.281 68.9161 129.281 67.8931 129.853C67.2776 130.202 66.6621 130.551 66.0279 130.91C64.3889 131.59 64.3889 131.59 62.0664 130.916Z" fill="#E9E4D6"/>
<path d="M127.133 140.986C127.763 140.961 128.394 140.936 129.043 140.911C130.098 143.383 130.527 144.574 129.625 147.159C129.233 147.843 128.842 148.528 128.438 149.234C128.055 149.921 127.672 150.608 127.278 151.317C124.295 156.209 124.295 156.209 121.666 157.655C121.01 157.05 120.355 156.444 119.68 155.82C120.286 155.165 120.891 154.51 121.515 153.835C121.866 152.677 122.2 151.515 122.527 150.351C123.289 148.705 124.08 147.072 124.893 145.451C125.311 144.613 125.73 143.775 126.161 142.912C126.482 142.276 126.802 141.641 127.133 140.986Z" fill="#E9E4D6"/>
<path d="M39.896 170.436C41.8836 170.502 41.8836 170.502 44.1288 171.035C45.4447 172.873 45.4447 172.873 46.1894 174.781C46.0782 175.164 45.967 175.547 45.8524 175.942C46.5077 177.549 47.207 179.138 47.9294 180.716C48.3219 181.578 48.7144 182.44 49.1188 183.328C49.4257 183.993 49.7325 184.658 50.0486 185.344C49.035 185.257 48.0213 185.171 46.977 185.082C46.7546 185.848 46.5321 186.615 46.303 187.404C43.2886 182.336 40.7077 177.429 39.559 171.598C39.6702 171.214 39.7814 170.831 39.896 170.436Z" fill="#E9E4D6"/>
<path d="M92.0382 172.978C94.515 171.752 96.995 170.532 99.4756 169.314C100.525 168.794 100.525 168.794 101.595 168.264C102.617 167.763 102.617 167.763 103.659 167.252C104.594 166.792 104.594 166.792 105.548 166.322C107.528 165.443 109.514 164.788 111.591 164.174C111.863 164.668 112.135 165.163 112.415 165.672C105.918 169.341 99.5013 172.939 92.5254 175.638C92.3646 174.76 92.2038 173.883 92.0382 172.978Z" fill="#E9E4D6"/>
<path d="M192.563 43.5133C193.194 43.4885 193.824 43.4637 194.474 43.4382C195.153 46.9336 193.928 48.9929 192.073 51.8375C190.706 53.5417 189.261 54.3127 187.283 55.2007C186.396 55.9719 185.525 56.7628 184.698 57.5983C184.179 57.2399 183.66 56.8815 183.125 56.5122C183.442 56.1011 183.76 55.6901 184.087 55.2666C186.351 52.3132 188.54 49.3525 190.59 46.2456C191.241 45.3439 191.892 44.4422 192.563 43.5133Z" fill="#E9E4D6"/>
<path d="M41.6173 155.827C42.2477 155.803 42.8781 155.778 43.5277 155.752C43.6884 156.63 43.8492 157.508 44.0149 158.412C43.4772 159.191 43.4772 159.191 42.9287 159.985C43.5839 160.591 44.2391 161.196 44.9142 161.82C44.6507 163.626 44.3302 165.424 43.9783 167.214C44.0106 169.126 44.0744 171.038 44.2036 172.946C41.469 171.522 41.469 171.522 40.3845 169.336C39.6425 166.177 39.9243 164.08 40.5736 160.915C40.7629 159.958 40.9522 159.001 41.1472 158.015C41.3023 157.293 41.4575 156.571 41.6173 155.827Z" fill="#E9E4D6"/>
<path d="M110.119 58.6172C115.446 56.0085 120.774 53.3997 126.262 50.712C126.782 51.0704 127.301 51.4288 127.836 51.7981C125.558 54.1705 122.945 55.6275 120.085 57.2209C118.726 57.9891 118.726 57.9891 117.34 58.7728C114.941 59.8831 113.541 60.2742 110.943 60.1154C110.671 59.621 110.399 59.1266 110.119 58.6172Z" fill="#E9E4D6"/>
<path d="M62.0666 130.916C65.2458 129.083 68.4384 127.274 71.6343 125.47C72.9934 124.685 72.9934 124.685 74.38 123.885C75.6849 123.153 75.6849 123.153 77.0162 122.406C78.2187 121.722 78.2187 121.722 79.4455 121.023C80.4842 120.616 80.4842 120.616 81.5439 120.201C82.4463 120.671 83.3487 121.141 84.2785 121.624C81.0179 123.311 77.7494 124.982 74.4789 126.65C73.5498 127.13 72.6206 127.611 71.6633 128.107C70.7734 128.559 69.8835 129.011 68.9667 129.476C68.1456 129.897 67.3245 130.318 66.4785 130.752C64.3891 131.59 64.3891 131.59 62.0666 130.916Z" fill="#E9E4D6"/>
<path d="M158.144 92.6992C158.441 93.8241 158.737 94.9489 159.043 96.1078C154.099 98.8278 149.155 101.548 144.061 104.35C145.804 100.49 146.24 99.8351 149.564 97.7241C150.606 97.0565 150.606 97.0565 151.669 96.3753C153.795 95.0831 155.932 93.8391 158.144 92.6992Z" fill="#E9E4D6"/>
<path d="M198.748 93.7816C198.996 93.6456 199.243 93.5096 199.498 93.3695C200.425 94.4696 201.352 95.5696 202.307 96.703C202.554 96.567 202.802 96.431 203.056 96.2909C202.624 94.9188 202.191 93.5468 201.745 92.1332C201.992 91.9972 202.239 91.8612 202.494 91.721C202.992 92.8304 203.48 93.944 203.965 95.0594C204.238 95.679 204.511 96.2987 204.792 96.9372C205.478 98.9458 205.627 100.584 205.604 102.696C205.06 101.707 204.516 100.718 203.956 99.6995C203.214 100.107 202.472 100.515 201.708 100.936C202.066 101.806 202.424 102.676 202.793 103.572C203.844 106.592 203.844 106.592 203.582 109.663C201.462 104.502 200.114 99.1855 198.748 93.7816Z" fill="#E9E4D6"/>
<path d="M136.756 103.489C142.331 100.745 147.905 97.9999 153.649 95.172C153.519 96.6925 153.519 96.6925 153.387 98.2436C151.784 99.4457 151.784 99.4457 149.651 100.543C148.907 100.927 148.163 101.311 147.397 101.706C144.552 103.06 141.697 104.235 138.741 105.325C138.086 104.719 137.431 104.113 136.756 103.489Z" fill="#E9E4D6"/>
<path d="M84.0594 174.44C88.0442 172.761 92.0205 171.14 96.1205 169.757C96.2565 170.004 96.3925 170.251 96.5326 170.506C95.8574 170.998 95.1822 171.49 94.4866 171.997C93.8145 172.568 93.1424 173.139 92.45 173.728C92.4747 174.358 92.4995 174.989 92.5251 175.638C91.5316 176.064 90.5381 176.49 89.5145 176.928C88.6762 177.288 88.6762 177.288 87.821 177.654C86.1199 178.186 86.1199 178.186 83.0483 177.924C84.2844 177.244 85.5205 176.564 86.794 175.863C85.8916 175.394 84.9891 174.924 84.0594 174.44Z" fill="#E9E4D6"/>
<path d="M85.592 145.298C87.1254 144.759 87.1254 144.759 89.0006 144.398C89.9031 144.868 90.8055 145.338 91.7352 145.822C91.2408 146.094 90.7464 146.366 90.237 146.646C90.917 147.882 91.597 149.118 92.2975 150.391C91.1727 150.688 90.0479 150.985 88.8889 151.291C85.6765 147.447 85.6765 147.447 85.592 145.298Z" fill="#E9E4D6"/>
<path d="M201.302 158.734C202.204 159.204 203.106 159.673 204.036 160.157C203.637 161.719 203.184 163.268 202.688 164.802C202.194 165.074 201.699 165.346 201.19 165.627C201.007 166.391 200.824 167.156 200.635 167.944C200.373 168.712 200.112 169.48 199.842 170.271C198.088 170.867 198.088 170.867 196.433 171.171C196.918 169.97 196.918 169.97 197.413 168.745C197.83 167.709 198.248 166.673 198.678 165.606C199.094 164.573 199.511 163.54 199.94 162.475C200.681 160.625 200.681 160.625 201.302 158.734Z" fill="#E9E4D6"/>
<path d="M45.178 178.265C47.4652 181.837 49.7524 185.409 52.1089 189.089C50.984 189.386 49.8592 189.683 48.7002 189.989C46.9323 186.775 45.1643 183.561 43.3428 180.25C44.4289 178.677 44.4289 178.677 45.178 178.265Z" fill="#E9E4D6"/>
<path d="M115.218 110.458C117.962 109.593 120.706 108.727 123.534 107.836C123.942 108.577 124.35 109.319 124.77 110.083C122.162 111.196 119.554 112.309 116.867 113.455C116.323 112.466 115.779 111.477 115.218 110.458Z" fill="#E9E4D6"/>
<path d="M41.2076 174.594C41.4548 174.458 41.702 174.322 41.9567 174.182C44.882 177.489 46.41 180.496 47.7263 184.67C47.0218 186.023 47.0218 186.023 46.3031 187.404C45.5498 186.132 44.8083 184.852 44.0716 183.57C43.6574 182.858 43.2432 182.146 42.8164 181.413C41.7235 179.064 41.3831 177.164 41.2076 174.594Z" fill="#E9E4D6"/>
<path d="M126.6 49.5504C127.779 48.8488 128.965 48.1587 130.154 47.4734C130.813 47.0879 131.473 46.7024 132.153 46.3052C134.091 45.4292 134.091 45.4292 137.163 45.6912C137.188 46.3216 137.212 46.952 137.238 47.6015C135.984 48.2064 134.722 48.795 133.457 49.3765C132.755 49.7059 132.054 50.0354 131.331 50.3749C129.335 50.9735 129.335 50.9735 126.6 49.5504Z" fill="#E9E4D6"/>
<path d="M120.125 108.735C121.235 108.237 122.348 107.749 123.464 107.264C124.083 106.991 124.703 106.718 125.341 106.437C127.35 105.751 128.988 105.602 131.1 105.625C127.609 109.168 125.029 111.098 120.275 112.556C122.621 110.168 122.621 110.168 124.77 110.083C124.362 109.341 123.954 108.6 123.534 107.836C122.409 108.132 121.284 108.429 120.125 108.735Z" fill="#E9E4D6"/>
<path d="M188.008 51.7521C188.928 51.2727 188.928 51.2727 189.866 50.7837C190.571 50.4297 190.571 50.4297 191.29 50.0685C191.562 50.5629 191.834 51.0573 192.115 51.5667C191.371 52.1169 190.627 52.667 189.86 53.2338C188.027 54.6324 186.337 55.9901 184.698 57.5982C184.179 57.2398 183.66 56.8814 183.125 56.5121C184.645 53.5917 185.217 53.1841 188.008 51.7521Z" fill="#E9E4D6"/>
<path d="M94.8511 215.344C96.6607 214.531 96.6607 214.531 99.0088 214.032C101.423 215.205 101.423 215.205 103.317 216.542C102.464 217.333 101.611 218.124 100.732 218.939C100.038 218.446 100.038 218.446 99.3299 217.942C97.4705 216.642 97.4705 216.642 94.8511 215.344Z" fill="#E9E4D6"/>
<path d="M169.673 16.0963C170.081 16.8379 170.489 17.5796 170.91 18.3437C169.486 21.0783 169.486 21.0783 167.693 21.6988C167.16 21.7908 166.627 21.8828 166.078 21.9776C165.287 21.1247 164.495 20.2719 163.68 19.3932C165.563 17.4001 166.982 16.6193 169.673 16.0963Z" fill="#E9E4D6"/>
<path d="M190.816 184.019C191.224 184.761 191.632 185.503 192.053 186.267C189.707 188.655 189.707 188.655 187.558 188.739C186.544 188.653 185.531 188.567 184.486 188.477C186.386 185.853 187.552 184.507 190.816 184.019Z" fill="#E9E4D6"/>
<path d="M68.6664 201.449C70.1134 202.971 70.1134 202.971 71.4761 204.783C71.2537 205.549 71.0313 206.316 70.8021 207.105C69.1375 206.74 69.1375 206.74 67.3184 206.094C66.9104 205.353 66.5024 204.611 66.082 203.847C67.1682 202.273 67.1682 202.273 68.6664 201.449Z" fill="#E9E4D6"/>
<path d="M185.18 1.7108C186.057 1.55002 186.935 1.38924 187.839 1.22359C187.728 1.6068 187.617 1.99 187.502 2.38483C188.433 4.14938 189.394 5.89851 190.387 7.6287C187.343 5.64371 187.343 5.64371 186.416 3.95818C185.922 4.23017 185.427 4.50216 184.918 4.7824C184.943 5.41282 184.967 6.04324 184.993 6.69276C184.226 6.47033 183.46 6.24791 182.67 6.01874C183.759 3.89522 183.759 3.89522 185.18 1.7108Z" fill="#E9E4D6"/>
<path d="M202.313 155.25C204.575 154.972 204.575 154.972 206.883 154.688C206.327 156.604 205.771 158.52 205.198 160.494C204.654 159.505 204.11 158.517 203.55 157.498C202.919 157.523 202.289 157.547 201.639 157.573C201.862 156.806 202.084 156.04 202.313 155.25Z" fill="#E9E4D6"/>
<path d="M117.102 216.765C119.728 216.368 121.414 216.128 123.994 216.876C122.411 218.418 121.126 219.43 119.162 220.51C118.482 219.274 117.802 218.038 117.102 216.765Z" fill="#E9E4D6"/>
<path d="M198.186 89.2119C198.928 88.8039 199.669 88.3959 200.433 87.9756C201.546 90.5837 202.659 93.1918 203.805 95.8789C203.558 96.0149 203.311 96.1509 203.056 96.2911C201.449 93.9549 199.842 91.6188 198.186 89.2119Z" fill="#E9E4D6"/>
<path d="M59.1457 134.475C59.6649 134.833 60.1841 135.191 60.719 135.561C58.8773 136.896 57.0356 138.231 55.1381 139.607C54.6189 139.248 54.0997 138.89 53.5648 138.521C55.0358 136.39 56.8785 135.658 59.1457 134.475Z" fill="#E9E4D6"/>
<path d="M193.162 39.2806C194.225 40.6279 195.289 41.9752 196.384 43.3633C195.846 44.1421 195.846 44.1421 195.298 44.9366C194.531 44.7142 193.765 44.4918 192.975 44.2626C192.234 44.6706 191.492 45.0786 190.728 45.4989C192.319 39.7442 192.319 39.7442 193.162 39.2806Z" fill="#E9E4D6"/>
<path d="M93.2774 214.258C95.0028 213.735 95.0028 213.735 96.6861 213.358C97.9224 215.606 97.9224 215.606 97.9975 217.516C97.1199 217.677 96.2422 217.838 95.338 218.003C93.9519 216.814 93.9519 216.814 92.9404 215.419C93.0516 215.036 93.1629 214.653 93.2774 214.258Z" fill="#E9E4D6"/>
<path d="M170.166 77.303C170.463 78.4278 170.76 79.5526 171.065 80.7116C170.213 81.5028 169.36 82.294 168.481 83.1092C168.073 82.3675 167.665 81.6259 167.245 80.8618C168.668 78.1272 168.668 78.1272 170.166 77.303Z" fill="#E9E4D6"/>
<path d="M98.175 114.955C101.045 113.742 101.045 113.742 103.831 112.82C103.701 114.34 103.701 114.34 103.569 115.891C101.567 116.349 99.5641 116.806 97.501 117.278C97.7234 116.511 97.9458 115.745 98.175 114.955Z" fill="#E9E4D6"/>
<path d="M153.986 94.0107C155.469 93.1948 156.952 92.3788 158.481 91.5381C159 91.8965 159.519 92.2549 160.054 92.6242C161.068 92.7106 162.081 92.7971 163.126 92.8861C162.125 93.3359 161.125 93.7856 160.094 94.249C159.25 94.6284 159.25 94.6284 158.389 95.0155C156.72 95.4339 156.72 95.4339 153.986 94.0107Z" fill="#E9E4D6"/>
<path d="M91.0042 116.888C91.9208 116.413 91.9208 116.413 92.856 115.93C93.128 116.424 93.3999 116.919 93.6802 117.428C94.3106 117.403 94.941 117.379 95.5905 117.353C93.4883 118.631 93.4883 118.631 91.0958 119.826C90.3294 119.603 89.563 119.381 88.7733 119.152C89.1103 117.99 89.1103 117.99 91.0042 116.888Z" fill="#E9E4D6"/>
<path d="M106.71 59.5162C108.957 58.2799 108.957 58.2799 111.617 57.7927C111.172 59.3255 110.727 60.8584 110.269 62.4376C109.638 62.4624 109.008 62.4872 108.358 62.5127C107.814 61.5239 107.27 60.535 106.71 59.5162Z" fill="#E9E4D6"/>
<path d="M162.594 20.9664C163.225 20.9416 163.855 20.9168 164.505 20.8913C164.375 22.4118 164.375 22.4118 164.243 23.9629C161.979 25.3912 161.979 25.3912 159.748 26.4356C160.359 23.9059 160.763 22.9475 162.594 20.9664Z" fill="#E9E4D6"/>
</svg>
